<svg id="6182196e-de8d-4804-808c-2100cafc45b4" data-name="Layer 1" xmlns="http://www.w3.org/2000/svg" xmlns:xlink="http://www.w3.org/1999/xlink" width="1163.33392" height="1733.3067" viewBox="0 0 1163.33392 1733.3067"><defs><style>.\39 d981997-da81-429a-bfa4-2a7ebeef9ccf{fill:none;}.\36 8ee1814-5c68-4302-88d1-cfd5f40c97af{fill:#f7f8fa;}.\39 64516fa-e9e2-4abb-9f4c-8f0902e97b69{fill:#d4d6e2;}.\39 aa3624e-1848-4228-a99a-239ce9502c90{fill:#eceef7;}.\38 1b414fc-c0c8-40f7-b3c7-8628f6410d9e{fill:#315dfa;}.\30 b5b2dcb-cd62-4284-bd99-afd412c26fa2{fill:#8d97b3;}.\32 845a7fc-fe7e-4a1a-b329-f266a9d20674{clip-path:url(#0b65a207-e3e8-4276-8e61-0b28609fd796);}.bbb4bd77-d564-4d6c-944a-4395690b9ef4{fill:#2e58eb;}.\31 43de248-8cdf-45c5-b648-21567a82513c{fill:#284bcc;}</style><clipPath id="0b65a207-e3e8-4276-8e61-0b28609fd796" transform="translate(0.0003 -0.00366)"><rect class="9d981997-da81-429a-bfa4-2a7ebeef9ccf" y="0.00305" width="1163.33301" height="1733.30701"/></clipPath></defs><title>icon-speed-up</title><polygon class="68ee1814-5c68-4302-88d1-cfd5f40c97af" points="1151.289 400.391 1151.266 941.097 741.532 706.52 741.495 177.777 1151.289 400.391"/><polygon class="964516fa-e9e2-4abb-9f4c-8f0902e97b69" points="1151.265 941.097 1163.334 934.213 1163.317 407.347 1151.288 400.391 1151.265 941.097"/><polygon class="9aa3624e-1848-4228-a99a-239ce9502c90" points="741.494 177.777 1151.257 414.383 1163.317 407.347 753.663 170.739 741.494 177.777"/><polygon class="68ee1814-5c68-4302-88d1-cfd5f40c97af" points="1040.754 458.581 1040.718 1269.64 426.118 917.775 426.063 124.66 1040.754 458.581"/><polygon class="964516fa-e9e2-4abb-9f4c-8f0902e97b69" points="1040.754 458.581 1058.796 469.016 1058.82 1259.312 1040.718 1269.64 1040.754 458.581"/><polygon class="9aa3624e-1848-4228-a99a-239ce9502c90" points="426.062 124.659 444.315 114.101 1058.795 469.016 1040.705 479.569 426.062 124.659"/><polygon class="68ee1814-5c68-4302-88d1-cfd5f40c97af" points="0.084 1205.508 921.984 1733.307 922.038 516.719 0 15.837 0.084 1205.508"/><polygon class="964516fa-e9e2-4abb-9f4c-8f0902e97b69" points="921.984 1733.306 949.139 1717.813 949.101 532.369 922.038 516.718 921.984 1733.306"/><polygon class="9aa3624e-1848-4228-a99a-239ce9502c90" points="27.381 0 0 15.836 921.965 548.201 949.101 532.37 27.381 0"/><path class="81b414fc-c0c8-40f7-b3c7-8628f6410d9e" d="M90.4209,1009.93158l42.991,24.82-.14,49.401-42.991-24.821Zm35.414,61.339.091-32.253-28.068-16.205-.091,32.253,28.068,16.205" transform="translate(0.0003 -0.00366)"/><polygon class="0b5b2dcb-cd62-4284-bd99-afd412c26fa2" points="176.229 1146.437 176.199 1157.006 147.669 1140.535 147.7 1129.966 176.229 1146.437"/><polygon class="0b5b2dcb-cd62-4284-bd99-afd412c26fa2" points="204.878 1120.626 204.848 1131.195 147.79 1098.253 147.819 1087.684 204.878 1120.626"/><polygon class="0b5b2dcb-cd62-4284-bd99-afd412c26fa2" points="288.506 1124.292 288.476 1134.866 147.915 1053.713 147.945 1043.139 288.506 1124.292"/><polygon class="0b5b2dcb-cd62-4284-bd99-afd412c26fa2" points="223.04 1107.673 223.01 1118.247 147.855 1074.857 147.885 1064.282 223.04 1107.673"/><path class="81b414fc-c0c8-40f7-b3c7-8628f6410d9e" d="M90.1748,1096.75775l42.991,24.82-.14,49.401-42.991-24.821Zm35.414,61.339.091-32.252-28.068-16.206-.091,32.253,28.068,16.205" transform="translate(0.0003 -0.00366)"/><polygon class="0b5b2dcb-cd62-4284-bd99-afd412c26fa2" points="296.661 1242.87 296.631 1253.444 205.69 1200.939 205.72 1190.365 296.661 1242.87"/><polygon class="0b5b2dcb-cd62-4284-bd99-afd412c26fa2" points="204.607 1216.022 204.577 1226.596 147.519 1193.654 147.548 1183.08 204.607 1216.022"/><polygon class="0b5b2dcb-cd62-4284-bd99-afd412c26fa2" points="197.037 1185.352 197.007 1195.927 147.593 1167.398 147.623 1156.824 197.037 1185.352"/><polygon class="0b5b2dcb-cd62-4284-bd99-afd412c26fa2" points="271.923 1201.687 271.893 1212.255 182.406 1160.59 182.437 1150.022 271.923 1201.687"/><polygon class="0b5b2dcb-cd62-4284-bd99-afd412c26fa2" points="230.402 1230.914 230.372 1241.488 211.412 1230.542 211.442 1219.968 230.402 1230.914"/><path class="81b414fc-c0c8-40f7-b3c7-8628f6410d9e" d="M343.9809,1149.4021l42.99,24.821-.14,49.4-42.991-24.821Zm35.418,61.347.091-32.258-28.072-16.20795-.092,32.258,28.073,16.20795" transform="translate(0.0003 -0.00366)"/><polygon class="0b5b2dcb-cd62-4284-bd99-afd412c26fa2" points="476.599 1247.15 476.569 1257.718 401.414 1214.328 401.445 1203.759 476.599 1247.15"/><polygon class="0b5b2dcb-cd62-4284-bd99-afd412c26fa2" points="429.788 1285.909 429.758 1296.483 401.229 1280.012 401.259 1269.437 429.788 1285.909"/><polygon class="0b5b2dcb-cd62-4284-bd99-afd412c26fa2" points="458.437 1260.098 458.407 1270.672 401.348 1237.729 401.378 1227.155 458.437 1260.098"/><polygon class="0b5b2dcb-cd62-4284-bd99-afd412c26fa2" points="542.066 1263.763 542.036 1274.337 401.475 1193.185 401.505 1182.611 542.066 1263.763"/><path class="81b414fc-c0c8-40f7-b3c7-8628f6410d9e" d="M343.7348,1236.22827l42.99,24.822-.14,49.399-42.991-24.82Zm35.418,61.347.091-32.257-28.072-16.208-.092,32.258,28.073,16.207" transform="translate(0.0003 -0.00366)"/><polygon class="0b5b2dcb-cd62-4284-bd99-afd412c26fa2" points="458.167 1355.498 458.137 1366.066 401.078 1333.124 401.108 1322.555 458.167 1355.498"/><polygon class="0b5b2dcb-cd62-4284-bd99-afd412c26fa2" points="525.483 1341.158 525.453 1351.732 435.966 1300.067 435.996 1289.493 525.483 1341.158"/><polygon class="0b5b2dcb-cd62-4284-bd99-afd412c26fa2" points="450.601 1324.831 450.571 1335.399 401.153 1306.868 401.183 1296.299 450.601 1324.831"/><polygon class="0b5b2dcb-cd62-4284-bd99-afd412c26fa2" points="483.961 1370.39 483.931 1380.959 464.976 1370.016 465.005 1359.447 483.961 1370.39"/><polygon class="0b5b2dcb-cd62-4284-bd99-afd412c26fa2" points="550.221 1382.347 550.19 1392.915 459.25 1340.41 459.28 1329.842 550.221 1382.347"/><g class="2845a7fc-fe7e-4a1a-b329-f266a9d20674"><path class="0b5b2dcb-cd62-4284-bd99-afd412c26fa2" d="M695.51611,1412.72467a7.76711,7.76711,0,0,1,3.551,6.126c-.006,2.278-1.591,3.177-3.574,2.031a7.746,7.746,0,0,1-3.524-6.13c.006-2.253,1.587-3.159,3.54706-2.027" transform="translate(0.0003 -0.00366)"/><path class="0b5b2dcb-cd62-4284-bd99-afd412c26fa2" d="M745.31927,1441.47955a7.74791,7.74791,0,0,1,3.524,6.109c-.006,2.279-1.587,3.179-3.547,2.047a7.76,7.76,0,0,1-3.551-6.145c.006-2.253,1.592-3.157,3.574-2.011" transform="translate(0.0003 -0.00366)"/><path class="0b5b2dcb-cd62-4284-bd99-afd412c26fa2" d="M695.24988,1506.69536a7.80679,7.80679,0,0,1,3.551,6.151c-.007,2.252-1.592,3.176-3.574,2.032a7.78658,7.78658,0,0,1-3.525-6.13c.006-2.258,1.588-3.185,3.548-2.053" transform="translate(0.0003 -0.00366)"/><path class="0b5b2dcb-cd62-4284-bd99-afd412c26fa2" d="M792.60895,1403.29007l34.675,20.02-.567,200.216-213.362-123.183.56805-200.218,34.675,20.019,14.931,8.622,114.149,65.903Zm27.01,207.942.44-155.261-199.119-114.961-.441,155.261,199.12,114.961m.463-163.443.058-20.435-199.119-114.961-.058,20.434,199.119,114.962" transform="translate(0.0003 -0.00366)"/><path class="0b5b2dcb-cd62-4284-bd99-afd412c26fa2" d="M720.41553,1427.10065a7.80629,7.80629,0,0,1,3.551,6.125c-.006,2.278-1.614,3.164-3.574,2.032a7.80313,7.80313,0,0,1-3.547-6.143c.007-2.252,1.614-3.143,3.57-2.014" transform="translate(0.0003 -0.00366)"/><path class="bbb4bd77-d564-4d6c-944a-4395690b9ef4" d="M770.19623,1455.84186a7.796,7.796,0,0,1,3.551,6.125c-.006,2.278-1.609,3.166-3.574,2.032a7.79705,7.79705,0,0,1-3.547-6.143c.007-2.253,1.61-3.146,3.57-2.014" transform="translate(0.0003 -0.00366)"/><path class="bbb4bd77-d564-4d6c-944a-4395690b9ef4" d="M795.1,1470.21976a7.79977,7.79977,0,0,1,3.547,6.123c-.006,2.278-1.61,3.166-3.57,2.034a7.79367,7.79367,0,0,1-3.551-6.145c.006-2.253,1.609-3.146,3.574-2.012" transform="translate(0.0003 -0.00366)"/><path class="0b5b2dcb-cd62-4284-bd99-afd412c26fa2" d="M645.64252,1416.66406a7.83231,7.83231,0,0,1,3.551,6.146c-.006,2.252-1.609,3.17-3.574,2.037a7.84627,7.84627,0,0,1-3.547-6.149c.007-2.253,1.61-3.166,3.57-2.034" transform="translate(0.0003 -0.00366)"/><path class="0b5b2dcb-cd62-4284-bd99-afd412c26fa2" d="M670.54633,1431.04205a7.83738,7.83738,0,0,1,3.547,6.143c-.006,2.253-1.61,3.171-3.57,2.04a7.84456,7.84456,0,0,1-3.551-6.152c.006-2.252,1.609-3.166,3.574-2.031" transform="translate(0.0003 -0.00366)"/><path class="0b5b2dcb-cd62-4284-bd99-afd412c26fa2" d="M695.42328,1445.40436a7.80441,7.80441,0,0,1,3.551,6.146c-.006,2.252-1.591,3.182-3.574,2.037a7.79455,7.79455,0,0,1-3.524-6.135c.006-2.253,1.587-3.18,3.54706-2.048" transform="translate(0.0003 -0.00366)"/><path class="0b5b2dcb-cd62-4284-bd99-afd412c26fa2" d="M720.32318,1459.78027a7.8454,7.8454,0,0,1,3.551,6.146c-.007,2.252-1.614,3.168-3.574,2.037a7.84983,7.84983,0,0,1-3.547-6.149c.006-2.253,1.614-3.163,3.57-2.034" transform="translate(0.0003 -0.00366)"/><path class="0b5b2dcb-cd62-4284-bd99-afd412c26fa2" d="M745.227,1474.15826a7.7901,7.7901,0,0,1,3.524,6.131c-.006,2.252-1.587,3.183-3.547,2.052a7.8138,7.8138,0,0,1-3.552-6.151c.007-2.253,1.592-3.177,3.575-2.032" transform="translate(0.0003 -0.00366)"/><path class="bbb4bd77-d564-4d6c-944a-4395690b9ef4" d="M770.10388,1488.52156a7.83231,7.83231,0,0,1,3.551,6.146c-.007,2.252-1.61,3.171-3.574,2.037a7.84109,7.84109,0,0,1-3.547-6.149c.007-2.253,1.61-3.166,3.57-2.034" transform="translate(0.0003 -0.00366)"/><path class="bbb4bd77-d564-4d6c-944a-4395690b9ef4" d="M795.00781,1502.89946a7.83374,7.83374,0,0,1,3.546,6.144c-.006,2.252-1.609,3.17-3.569,2.039a7.8464,7.8464,0,0,1-3.552-6.151c.007-2.253,1.61-3.167,3.575-2.032" transform="translate(0.0003 -0.00366)"/><path class="0b5b2dcb-cd62-4284-bd99-afd412c26fa2" d="M645.56152,1445.27445a7.79786,7.79786,0,0,1,3.551,6.126c-.006,2.278-1.609,3.166-3.574,2.031a7.79524,7.79524,0,0,1-3.547-6.142c.007-2.253,1.61-3.147,3.57-2.015" transform="translate(0.0003 -0.00366)"/><path class="0b5b2dcb-cd62-4284-bd99-afd412c26fa2" d="M670.46527,1459.65335a7.7995,7.7995,0,0,1,3.547,6.122c-.006,2.279-1.61,3.167-3.57,2.035a7.79548,7.79548,0,0,1-3.551-6.146c.006-2.252,1.609-3.146,3.574-2.011" transform="translate(0.0003 -0.00366)"/><path class="0b5b2dcb-cd62-4284-bd99-afd412c26fa2" d="M695.34222,1474.01566a7.76681,7.76681,0,0,1,3.551,6.125c-.006,2.279-1.591,3.177-3.574,2.032a7.74609,7.74609,0,0,1-3.524-6.13c.006-2.253,1.587-3.159,3.54706-2.027" transform="translate(0.0003 -0.00366)"/><path class="0b5b2dcb-cd62-4284-bd99-afd412c26fa2" d="M720.24158,1488.39166a7.80472,7.80472,0,0,1,3.551,6.125c-.006,2.278-1.614,3.164-3.574,2.032a7.8047,7.8047,0,0,1-3.547-6.143c.007-2.253,1.614-3.143,3.57-2.014" transform="translate(0.0003 -0.00366)"/><path class="0b5b2dcb-cd62-4284-bd99-afd412c26fa2" d="M745.14539,1502.76956a7.74967,7.74967,0,0,1,3.524,6.11c-.006,2.279-1.587,3.179-3.547,2.047a7.76009,7.76009,0,0,1-3.551-6.145c.006-2.253,1.592-3.157,3.574-2.012" transform="translate(0.0003 -0.00366)"/><path class="bbb4bd77-d564-4d6c-944a-4395690b9ef4" d="M770.0224,1517.13286a7.79812,7.79812,0,0,1,3.55194,6.125c-.007,2.278-1.61,3.166-3.575,2.032a7.7971,7.7971,0,0,1-3.547-6.143c.007-2.253,1.61-3.146,3.57-2.014" transform="translate(0.0003 -0.00366)"/><path class="bbb4bd77-d564-4d6c-944a-4395690b9ef4" d="M794.9267,1531.51076a7.79587,7.79587,0,0,1,3.546,6.123c-.006,2.278-1.609,3.166-3.569,2.034a7.79726,7.79726,0,0,1-3.552-6.145c.007-2.253,1.61-3.147,3.575-2.012" transform="translate(0.0003 -0.00366)"/><path class="0b5b2dcb-cd62-4284-bd99-afd412c26fa2" d="M645.46869,1477.95416a7.83673,7.83673,0,0,1,3.551,6.151c-.006,2.253-1.609,3.166-3.574,2.032a7.83545,7.83545,0,0,1-3.547-6.143c.007-2.258,1.61-3.172,3.57-2.04" transform="translate(0.0003 -0.00366)"/><path class="0b5b2dcb-cd62-4284-bd99-afd412c26fa2" d="M670.373,1492.33305a7.8348,7.8348,0,0,1,3.546,6.148c-.006,2.252-1.609,3.166-3.569,2.035a7.83921,7.83921,0,0,1-3.552-6.147c.007-2.257,1.61-3.171,3.575-2.036" transform="translate(0.0003 -0.00366)"/><path class="0b5b2dcb-cd62-4284-bd99-afd412c26fa2" d="M720.14941,1521.07137a7.84366,7.84366,0,0,1,3.551,6.15c-.007,2.253-1.614,3.164-3.574,2.033a7.84082,7.84082,0,0,1-3.547-6.144c.006-2.258,1.614-3.169,3.57-2.039" transform="translate(0.0003 -0.00366)"/><path class="0b5b2dcb-cd62-4284-bd99-afd412c26fa2" d="M745.05322,1535.44927a7.78887,7.78887,0,0,1,3.524,6.136c-.006,2.253-1.587,3.178-3.547,2.047a7.80483,7.80483,0,0,1-3.552-6.146c.007-2.258,1.592-3.182,3.575-2.037" transform="translate(0.0003 -0.00366)"/></g><polygon class="964516fa-e9e2-4abb-9f4c-8f0902e97b69" points="97.454 823.795 97.466 819.716 171.534 862.48 171.522 866.559 97.454 823.795"/><polygon class="964516fa-e9e2-4abb-9f4c-8f0902e97b69" points="97.76 716.25 97.77 712.171 171.84 754.934 171.827 759.014 97.76 716.25"/><polygon class="964516fa-e9e2-4abb-9f4c-8f0902e97b69" points="174.588 868.328 174.6 864.249 267.234 917.731 267.223 921.81 174.588 868.328"/><polygon class="964516fa-e9e2-4abb-9f4c-8f0902e97b69" points="174.892 760.783 174.904 756.704 267.538 810.187 267.527 814.266 174.892 760.783"/><polygon class="964516fa-e9e2-4abb-9f4c-8f0902e97b69" points="98.369 501.153 98.38 497.081 172.449 539.844 172.437 543.916 98.369 501.153"/><polygon class="964516fa-e9e2-4abb-9f4c-8f0902e97b69" points="175.198 653.238 175.208 649.159 267.844 702.642 267.832 706.72 175.198 653.238"/><polygon class="964516fa-e9e2-4abb-9f4c-8f0902e97b69" points="175.502 545.685 175.514 541.613 268.148 595.096 268.137 599.168 175.502 545.685"/><polygon class="964516fa-e9e2-4abb-9f4c-8f0902e97b69" points="175.807 438.14 175.818 434.061 268.453 487.544 268.442 491.623 175.807 438.14"/><polygon class="964516fa-e9e2-4abb-9f4c-8f0902e97b69" points="176.29 267.912 176.061 348.635 176.05 352.714 175.819 434.061 175.808 438.14 175.514 541.613 175.502 545.685 175.209 649.159 175.198 653.238 174.904 756.704 174.893 760.783 174.6 864.249 174.588 868.328 174.358 949.462 171.293 947.692 171.523 866.559 171.535 862.479 171.828 759.014 171.84 754.934 172.133 651.468 172.144 647.389 172.438 543.915 172.449 539.844 172.743 436.37 172.754 432.291 172.985 350.945 172.997 346.866 173.226 266.142 176.29 267.912"/><polygon class="964516fa-e9e2-4abb-9f4c-8f0902e97b69" points="176.049 352.714 176.06 348.635 268.695 402.118 268.684 406.197 176.049 352.714"/><polygon class="964516fa-e9e2-4abb-9f4c-8f0902e97b69" points="271.989 323.164 271.76 403.887 271.748 407.966 271.518 489.313 271.506 493.392 271.213 596.866 271.201 600.937 270.908 704.411 270.897 708.49 270.603 811.956 270.592 816.035 270.298 919.501 270.287 923.58 270.057 1004.714 266.992 1002.944 267.222 921.811 267.234 917.731 267.527 814.266 267.538 810.187 267.832 706.72 267.843 702.642 268.137 599.168 268.148 595.096 268.442 491.622 268.453 487.543 268.684 406.197 268.696 402.118 268.924 321.395 271.989 323.164"/><polygon class="964516fa-e9e2-4abb-9f4c-8f0902e97b69" points="367.442 463.215 367.454 459.136 460.082 512.615 460.071 516.694 367.442 463.215"/><polygon class="964516fa-e9e2-4abb-9f4c-8f0902e97b69" points="367.2 548.641 367.212 544.562 459.84 598.041 459.829 602.12 367.2 548.641"/><polygon class="964516fa-e9e2-4abb-9f4c-8f0902e97b69" points="366.895 656.186 366.906 652.114 459.535 705.593 459.523 709.665 366.895 656.186"/><polygon class="964516fa-e9e2-4abb-9f4c-8f0902e97b69" points="366.59 763.739 366.602 759.66 459.23 813.139 459.219 817.218 366.59 763.739"/><polygon class="964516fa-e9e2-4abb-9f4c-8f0902e97b69" points="365.98 978.829 365.992 974.749 458.621 1028.228 458.609 1032.308 365.98 978.829"/><polygon class="964516fa-e9e2-4abb-9f4c-8f0902e97b69" points="654.535 628.968 654.546 624.889 747.175 678.368 747.163 682.447 654.535 628.968"/><polygon class="964516fa-e9e2-4abb-9f4c-8f0902e97b69" points="653.378 1037.036 653.39 1032.957 746.018 1086.436 746.007 1090.515 653.378 1037.036"/><polygon class="964516fa-e9e2-4abb-9f4c-8f0902e97b69" points="98.916 308.181 98.928 304.102 172.996 346.866 172.984 350.945 98.916 308.181"/><polygon class="964516fa-e9e2-4abb-9f4c-8f0902e97b69" points="98.674 393.607 98.686 389.528 172.754 432.292 172.742 436.371 98.674 393.607"/><polygon class="964516fa-e9e2-4abb-9f4c-8f0902e97b69" points="98.064 608.705 98.076 604.626 172.144 647.39 172.132 651.469 98.064 608.705"/><polygon class="964516fa-e9e2-4abb-9f4c-8f0902e97b69" points="270.287 923.58 270.298 919.501 362.927 972.98 362.915 977.059 270.287 923.58"/><polygon class="964516fa-e9e2-4abb-9f4c-8f0902e97b69" points="270.592 816.036 270.604 811.957 363.232 865.435 363.22 869.515 270.592 816.036"/><polygon class="964516fa-e9e2-4abb-9f4c-8f0902e97b69" points="270.897 708.49 270.908 704.411 363.537 757.89 363.525 761.969 270.897 708.49"/><polygon class="964516fa-e9e2-4abb-9f4c-8f0902e97b69" points="461.68 1034.081 461.692 1030.002 554.32 1083.48 554.309 1087.56 461.68 1034.081"/><polygon class="964516fa-e9e2-4abb-9f4c-8f0902e97b69" points="271.202 600.938 271.214 596.866 363.842 650.345 363.83 654.417 271.202 600.938"/><polygon class="964516fa-e9e2-4abb-9f4c-8f0902e97b69" points="653.073 1144.582 653.085 1140.503 745.713 1193.981 745.701 1198.061 653.073 1144.582"/><polygon class="964516fa-e9e2-4abb-9f4c-8f0902e97b69" points="271.749 407.967 271.761 403.888 364.389 457.367 364.378 461.446 271.749 407.967"/><polygon class="964516fa-e9e2-4abb-9f4c-8f0902e97b69" points="748.778 1195.751 823.045 1238.629 823.033 1242.708 748.767 1199.83 748.778 1195.751"/><polygon class="964516fa-e9e2-4abb-9f4c-8f0902e97b69" points="749.083 1088.206 823.349 1131.084 823.338 1135.163 749.071 1092.285 749.083 1088.206"/><polygon class="964516fa-e9e2-4abb-9f4c-8f0902e97b69" points="462.9 603.893 462.912 599.814 555.54 653.293 555.528 657.372 462.9 603.893"/><polygon class="964516fa-e9e2-4abb-9f4c-8f0902e97b69" points="653.683 929.492 653.694 925.413 746.323 978.892 746.311 982.971 653.683 929.492"/><polygon class="964516fa-e9e2-4abb-9f4c-8f0902e97b69" points="463.382 433.665 463.153 514.388 463.142 518.467 462.911 599.814 462.9 603.893 462.606 707.366 462.595 711.438 462.301 814.911 462.29 818.99 461.996 922.457 461.985 926.536 461.692 1030.002 461.68 1034.081 461.45 1115.215 458.379 1113.441 458.609 1032.308 458.621 1028.229 458.914 924.763 458.925 920.684 459.219 817.218 459.23 813.139 459.524 709.665 459.535 705.593 459.829 602.12 459.84 598.04 460.071 516.694 460.082 512.615 460.311 431.892 463.382 433.665"/><polygon class="964516fa-e9e2-4abb-9f4c-8f0902e97b69" points="463.142 518.468 463.154 514.389 555.782 567.868 555.77 571.947 463.142 518.468"/><polygon class="964516fa-e9e2-4abb-9f4c-8f0902e97b69" points="559.082 488.917 558.853 569.64 558.842 573.719 558.611 655.066 558.6 659.145 558.306 762.619 558.294 766.69 558.001 870.164 557.99 874.243 557.696 977.709 557.685 981.788 557.392 1085.254 557.38 1089.333 557.15 1170.467 554.079 1168.694 554.309 1087.561 554.32 1083.481 554.614 980.015 554.625 975.936 554.919 872.47 554.93 868.391 555.224 764.917 555.235 760.846 555.528 657.372 555.54 653.293 555.77 571.946 555.782 567.867 556.011 487.144 559.082 488.917"/><polygon class="964516fa-e9e2-4abb-9f4c-8f0902e97b69" points="654.293 714.394 654.304 710.315 746.933 763.794 746.921 767.873 654.293 714.394"/><polygon class="964516fa-e9e2-4abb-9f4c-8f0902e97b69" points="654.775 544.166 654.546 624.889 654.535 628.968 654.304 710.315 654.293 714.394 653.999 817.868 653.987 821.939 653.694 925.413 653.683 929.492 653.389 1032.958 653.378 1037.037 653.085 1140.503 653.073 1144.583 652.843 1225.716 649.778 1223.947 650.008 1142.813 650.02 1138.734 650.313 1035.268 650.325 1031.189 650.618 927.722 650.629 923.643 650.923 820.169 650.935 816.098 651.228 712.625 651.239 708.545 651.47 627.199 651.482 623.12 651.711 542.397 654.775 544.166"/><polygon class="964516fa-e9e2-4abb-9f4c-8f0902e97b69" points="749.997 765.563 824.264 808.44 824.252 812.52 749.985 769.642 749.997 765.563"/><polygon class="964516fa-e9e2-4abb-9f4c-8f0902e97b69" points="750.239 680.137 824.506 723.016 824.494 727.094 750.227 684.217 750.239 680.137"/><path class="0b5b2dcb-cd62-4284-bd99-afd412c26fa2" d="M93.08441,211.71118l737.774,425.954-1.978,697.852-737.775-425.955Zm731.419,511.306.22894-80.72394-74.266-42.877-3.063-1.769-92.631-53.481-3.064-1.76807-92.627-53.478-3.072-1.77393-92.631-53.4801-3.071-1.77393-92.627-53.478-3.064-1.769-92.627-53.47791-3.063-1.769-92.63495-53.483-3.064-1.76794-74.067-42.76306-.229,80.724-.011,4.07507-.231,81.348-.012,4.08093-.293,103.47-.012,4.072-.293,103.475-.012,4.08105-.293,103.466-.012,4.076-.293,103.467-.011,4.08-.23,81.134,74.067,42.762,3.063,1.769,92.636,53.483,3.063,1.769,92.627,53.478,3.064,1.769,92.627,53.478,3.071,1.774,92.631,53.48,3.072,1.774,92.627,53.477,3.063,1.769,92.631,53.481,3.064,1.769,74.26605,42.877.23-81.134.012-4.08.293-103.467.011-4.075.294-103.467.011-4.08.293-103.476.012-4.071.294-103.471.011-4.081.231-81.347.011-4.076" transform="translate(0.0003 -0.00366)"/><polygon class="964516fa-e9e2-4abb-9f4c-8f0902e97b69" points="366.285 871.284 366.297 867.205 458.925 920.684 458.913 924.763 366.285 871.284"/><polygon class="964516fa-e9e2-4abb-9f4c-8f0902e97b69" points="461.985 926.536 461.996 922.457 554.625 975.935 554.613 980.015 461.985 926.536"/><polygon class="964516fa-e9e2-4abb-9f4c-8f0902e97b69" points="557.38 1089.333 557.392 1085.254 650.02 1138.733 650.009 1142.812 557.38 1089.333"/><polygon class="964516fa-e9e2-4abb-9f4c-8f0902e97b69" points="271.507 493.392 271.519 489.313 364.147 542.792 364.136 546.871 271.507 493.392"/><polygon class="964516fa-e9e2-4abb-9f4c-8f0902e97b69" points="462.29 818.99 462.302 814.911 554.93 868.391 554.919 872.469 462.29 818.99"/><polygon class="964516fa-e9e2-4abb-9f4c-8f0902e97b69" points="557.685 981.788 557.696 977.709 650.325 1031.188 650.313 1035.267 557.685 981.788"/><polygon class="964516fa-e9e2-4abb-9f4c-8f0902e97b69" points="462.595 711.438 462.606 707.366 555.235 760.845 555.223 764.917 462.595 711.438"/><polygon class="964516fa-e9e2-4abb-9f4c-8f0902e97b69" points="557.989 874.243 558.001 870.164 650.629 923.643 650.617 927.722 557.989 874.243"/><polygon class="964516fa-e9e2-4abb-9f4c-8f0902e97b69" points="367.683 378.413 367.454 459.136 367.442 463.215 367.212 544.562 367.2 548.641 366.907 652.115 366.895 656.186 366.602 759.66 366.59 763.739 366.297 867.205 366.286 871.284 365.992 974.75 365.98 978.83 365.75 1059.963 362.686 1058.194 362.916 977.06 362.928 972.981 363.221 869.515 363.232 865.435 363.526 761.969 363.537 757.891 363.83 654.417 363.842 650.345 364.136 546.871 364.147 542.792 364.378 461.446 364.389 457.367 364.618 376.644 367.683 378.413"/><polygon class="964516fa-e9e2-4abb-9f4c-8f0902e97b69" points="558.294 766.691 558.306 762.619 650.935 816.098 650.923 820.17 558.294 766.691"/><polygon class="964516fa-e9e2-4abb-9f4c-8f0902e97b69" points="749.387 980.661 823.654 1023.538 823.642 1027.617 749.376 984.74 749.387 980.661"/><polygon class="964516fa-e9e2-4abb-9f4c-8f0902e97b69" points="558.599 659.145 558.611 655.066 651.239 708.545 651.227 712.624 558.599 659.145"/><polygon class="964516fa-e9e2-4abb-9f4c-8f0902e97b69" points="653.987 821.939 653.999 817.868 746.627 871.346 746.616 875.418 653.987 821.939"/><polygon class="964516fa-e9e2-4abb-9f4c-8f0902e97b69" points="558.841 573.719 558.853 569.641 651.481 623.12 651.469 627.198 558.841 573.719"/><polygon class="964516fa-e9e2-4abb-9f4c-8f0902e97b69" points="749.693 873.115 823.959 915.994 823.947 920.065 749.681 877.188 749.693 873.115"/><polygon class="964516fa-e9e2-4abb-9f4c-8f0902e97b69" points="750.469 599.414 750.239 680.137 750.227 684.216 749.997 765.563 749.985 769.642 749.693 873.115 749.68 877.187 749.387 980.661 749.376 984.74 749.082 1088.206 749.071 1092.285 748.777 1195.751 748.766 1199.83 748.536 1280.964 745.471 1279.194 745.701 1198.061 745.713 1193.981 746.006 1090.516 746.017 1086.437 746.311 982.971 746.322 978.892 746.616 875.418 746.627 871.347 746.921 767.873 746.932 763.793 747.163 682.447 747.175 678.368 747.403 597.645 750.469 599.414"/><g class="2845a7fc-fe7e-4a1a-b329-f266a9d20674"><path class="81b414fc-c0c8-40f7-b3c7-8628f6410d9e" d="M681.455,1193.17194c7.879,4.549,14.243,15.571,14.217,24.625l-.003,1.101c-.026,9.052-6.431,12.71-14.31,8.162l-173.529-100.188c-7.872-4.545-14.242-15.578-14.216-24.632l.003-1.1c.026-9.053,6.437-12.699,14.31-8.155Z" transform="translate(0.0003 -0.00366)"/><path class="81b414fc-c0c8-40f7-b3c7-8628f6410d9e" d="M746.79883,1130.48938c7.879,4.549,14.243,15.571,14.217,24.624l-.003,1.101c-.026,9.053-6.431,12.704-14.31,8.155l-363.159-209.671c-7.879-4.549-14.243-15.571-14.217-24.624l.003-1.101c.026-9.053,6.431-12.703,14.31-8.155Z" transform="translate(0.0003 -0.00366)"/><path class="81b414fc-c0c8-40f7-b3c7-8628f6410d9e" d="M653.54779,973.99225c7.879,4.549,14.243,15.579,14.217,24.632l-.003,1.1c-.026,9.054-6.431,12.705-14.31,8.15594l-327.456-189.058c-7.879-4.549-14.243-15.571-14.217-24.624l.003-1.101c.026-9.053,6.431-12.71,14.31-8.162Z" transform="translate(0.0003 -0.00366)"/><path class="81b414fc-c0c8-40f7-b3c7-8628f6410d9e" d="M523.623,789.66418c7.879,4.549,14.249,15.583,14.223,24.636l-.003,1.1c-.026,9.054-6.437,12.701-14.316,8.152L234.525,656.69629c-7.878-4.54907-14.242-15.571-14.216-24.624l.003-1.10107c.025-9.053,6.431-12.71,14.31-8.162Z" transform="translate(0.0003 -0.00366)"/><path class="81b414fc-c0c8-40f7-b3c7-8628f6410d9e" d="M667.99109,765.33844c7.879,4.549,14.243,15.572,14.217,24.625l-.003,1.1c-.026,9.053-6.431,12.703-14.31,8.154l-256.44-148.055c-7.879-4.549-14.242-15.572-14.216-24.624l.002-1.101c.026-9.053,6.432-12.704,14.311-8.155Z" transform="translate(0.0003 -0.00366)"/><path class="81b414fc-c0c8-40f7-b3c7-8628f6410d9e" d="M485.58539,563.97412c7.878,4.54907,14.249,15.583,14.223,24.63611l-.003,1.1c-.026,9.054-6.437,12.7-14.316,8.151l-211.773-122.267c-7.879-4.54907-14.242-15.571-14.217-24.624l.003-1.10107c.026-9.053,6.432-12.71,14.31-8.162Z" transform="translate(0.0003 -0.00366)"/><path class="81b414fc-c0c8-40f7-b3c7-8628f6410d9e" d="M373.84171,417.94287c7.879,4.5481,14.243,15.5791,14.217,24.63208l-.003,1.1c-.026,9.054-6.431,12.704-14.31,8.155l-211.779-122.271c-7.879-4.54907-14.243-15.571-14.217-24.624l.003-1.101c.026-9.0531,6.431-12.71106,14.31-8.16211Z" transform="translate(0.0003 -0.00366)"/><path class="143de248-8cdf-45c5-b648-21567a82513c" d="M709.6391,1207.38977c-.03406-.323-.06006-.645-.108-.97095-.008-.052-.02-.107-.029-.16-.026-.173-.062-.347-.092-.52-.066-.376-.137-.752-.221-1.13-.045-.202-.094-.405-.144-.608-.04395-.178-.08-.357-.128-.536-.047-.178-.106-.354-.157-.532-.059-.206-.119-.411-.183-.617-.116-.373-.243-.745-.374-1.117-.064-.18-.124-.361-.191-.541-.022-.059-.04-.118-.062-.176-.108-.284-.233-.565-.35-.848-.098-.235-.189-.473-.293-.707-.157-.357-.329-.709-.5-1.062-.101-.209-.195-.421-.3-.628-.012-.023-.021-.046-.033-.068-.034-.067-.076-.131-.11-.197-.341-.656-.706-1.3-1.089-1.935-.115-.19-.229-.377-.347-.565-.41895-.665-.852-1.317-1.312-1.947-.022-.031-.041-.064-.063-.094l-.01794-.023c-.08-.108-.165-.209-.24506-.315-.28894-.384-.582-.765-.88495-1.132-.14-.17-.287-.329-.43-.495-.252-.293-.504-.586-.765-.867-.167-.179-.338-.348-.508-.521-.247-.254-.494-.506-.748-.748-.18195-.173-.369-.337-.554-.50494-.17-.153-.335-.314-.507-.461-.068-.058-.14-.106-.208-.163-.341-.286-.689-.552-1.039-.814-.169-.126-.334-.26-.505-.38-.522-.368-1.052-.716-1.59-1.026l-173.529-100.187c-.182-.105-.364-.207-.545-.303-.18-.096-.356-.169-.534-.257-.191-.093-.381-.191-.57-.274-.284-.127-.563-.233-.84094-.337-.17206-.064-.346-.136-.51605-.193-.043-.014-.087-.035-.129-.048-.383-.123-.759-.223-1.129-.304l-.036-.005a10.25342,10.25342,0,0,0-1.046-.174c-.045-.005-.088-.003-.133-.008-.135-.013-.267-.015-.401-.022-.263-.015-.523-.02295-.777-.015-.145.004-.287.015-.428.026-.119.00995-.243.008-.36.024-.099.011-.19.042-.289.058-.191.032-.379.071-.565.115-.188.047-.373.1-.555.161q-.26706.08853-.525.198c-.086.036-.178.059-.262.099-.173.082-.342.17-.508.267l-14.095,8.192a6.86176,6.86176,0,0,1,.769-.367c.172-.072.346-.138.525-.197.182-.061.367-.114.556-.161q.2775-.06747.565-.115c.213-.035.428-.064.648-.081.142-.012.283-.023.428-.028.254-.008.515.001.778.016.134.007.265.009.401.022a10.51646,10.51646,0,0,1,1.178.181c.012.003.024.003.035.006a12.91166,12.91166,0,0,1,1.259.351c.17.057.344.129.516.194.279.104.557.211.841.337.189.084.38.18.571.274.357.176.714.35,1.079.56l173.528,100.186c.538.312,1.068.658,1.591,1.028.17.119.335.252.503.377.351.263.699.53,1.04.816.241.201.479.41095.715.624.186.167.372.331.555.505.253.241.501.494.748.747.169.174.341.343.507.521.261.282.513.575.766.868.142.166.289.326.429.495.304.368.596.748.886,1.132.08.106.165.207.243.314.029.038.054.079.082.117.459.63.893,1.283,1.311,1.947.119.188.234.376.348.566.382.634.748,1.279,1.089,1.935.046.089.098.175.142.264.105.206.199.417.299.625.172.355.345.708.50305,1.067.103.233.193.468.29.703.142.341.285.682.414,1.027.067.18.127.359.191.54.132.372.259.74506.375,1.118.063.205.123.411.182.616.102.357.197.712.285,1.068.049.203.099.406.144.608.084.379.155.757.222,1.133.03.173.065.346.092.517.058.381.098.75995.137,1.138.019.185.047.371.062.555.043.558.067,1.109.066,1.654l-.003,1.101c-.001.313-.028.604-.043.904-.014.251-.01605.511-.04.753-.027.276-.075.531-.115.796-.036.23-.06.471-.104.692-.053.258-.126.494-.191.74-.055.204-.099.419-.162.615-.077.239-.175.455-.265.679-.072.179-.133.371-.214.541-.10205.219-.225.415-.34.618-.087.152-.163.317-.256.461-.132.202-.282.379-.427.564-.096.121-.181.257-.282.37a6.87446,6.87446,0,0,1-.549.532c-.09.082-.171.178-.265.255a6.68362,6.68362,0,0,1-.911.634l14.096-8.191a6.9185,6.9185,0,0,0,.912-.63495c.09-.074.169-.168.257-.248a7.21858,7.21858,0,0,0,.556-.538c.098-.112.181-.242.274-.361.147-.187.301-.368.435-.574.093-.143.16895-.308.25494-.461.116-.204.239-.398.342-.618.079-.17.141-.361.213-.541.09-.224.188-.44.265-.679.062-.193.106-.406.159-.608.066-.248.14105-.486.19305-.74695.045-.21906.069-.457.103-.68506.041-.266.09-.524.117-.803.024-.242.026-.501.04-.752.014-.274.04-.537.04205-.822v-.083l.004-1.1c.001-.545-.023-1.097-.067-1.654-.014-.186-.042-.375-.062-.562" transform="translate(0.0003 -0.00366)"/><path class="143de248-8cdf-45c5-b648-21567a82513c" d="M775.04529,1145.26868c-.014-.186-.043-.374-.062-.561-.034-.324-.061-.646-.108-.972-.008-.053-.021-.107-.029-.16-.027-.172-.062-.34595-.092-.519-.066-.377-.138-.754-.222-1.132-.044-.202-.09406-.404-.144-.606-.044-.179-.079-.358-.127-.537-.048-.178-.107-.355-.158-.533-.059-.206-.118-.411-.182-.616-.116-.374-.243-.747-.375-1.119-.064-.18005-.123-.359-.19-.538-.022-.06-.04-.118-.062-.178-.109-.285-.235-.567-.353-.851-.097-.235-.187-.469-.29-.701-.158-.36-.331-.713-.502-1.068-.101-.208-.194-.418-.299-.625-.011-.022-.021-.045-.032-.067-.034-.068-.076-.13-.111-.197-.341-.657-.706-1.3-1.088-1.934-.115-.19-.23-.379-.348-.566-.418-.665-.852-1.318-1.312-1.949-.022-.029-.04-.062-.062-.092l-.019-.024c-.079-.107-.165-.209-.245-.316-.289-.383-.582-.763-.884-1.13-.14-.169-.287-.328-.429-.493-.253-.294-.506-.588-.767-.87-.165-.177-.336-.345-.504-.518-.249-.255-.497-.508-.752-.751-.182-.173-.368-.337-.553-.504-.17-.152-.335-.314-.508-.461-.067-.058-.139-.106-.207-.163-.341-.285-.689-.552-1.039-.813-.169-.127-.334-.26-.505-.381-.52295-.368-1.052-.715-1.59-1.027l-363.16-209.67c-.183-.105-.365-.207-.546-.303-.18-.09595-.355-.16895-.533-.256-.191-.094-.382-.192-.571-.276-.284-.126-.563-.232-.842-.336-.172-.065-.346-.137-.516-.194-.043-.014-.088-.035-.131-.049q-.573-.183-1.128-.302l-.027-.005a10.44685,10.44685,0,0,0-1.056-.175c-.045-.005-.087-.003-.131-.008-.136-.014-.267-.015-.401-.022-.263-.015-.523-.023-.777-.016-.145.005-.286.016-.428.027-.12.01-.244.00806-.361.023-.099.013-.19.043-.287.059-.192.032-.38.07-.565.116q-.28354.06894-.556.16-.267.08853-.524.197c-.086.037-.178.06-.262.099q-.25951.123-.507.267l-14.096,8.192a6.77848,6.77848,0,0,1,.769-.367c.171-.072.346-.137.524-.197.182-.06.367-.114.555-.16.186-.045.374-.084.565-.115.213-.035.429-.064.649-.082.141-.012.284-.023.428-.027.254-.007.514,0,.777.015.134.008.266.00995.401.02295a10.5099,10.5099,0,0,1,1.188.183l.026.004a12.38778,12.38778,0,0,1,1.259.353c.17.055.344.127.517.192.278.10394.557.211.84.337.189.084.381.181.572.275.358.176.715.35,1.079.56l363.16,209.671c.538.31,1.068.657,1.591,1.026.17.12.335.253.503.379.35.262.698.529,1.04.814.241.202.478.412.715.624.185.167.372.332.554.505.254.242.501.495.749.748.169.174.341.343.507.522.259.279.511.572.763.864.143.16705.291.328.432.498.302.366.594.745.882,1.127.081.108.167.21.247.31805.028.039.053.08.081.118.46.63.894,1.283,1.312,1.947.118.187.234.377.348.566.382.634.748,1.279,1.088,1.934.046.089.098.176.143.265.106.208.2.42.301.628.171.354.343.70605.5,1.063.104.23395.195.472.293.70795.14.34.283.68005.411,1.022.068.18.128.362.192.543.131.371.258.742.373,1.114.065.207.124.414.184.621.102.354.197.71.284,1.065.05.202.1.406.145.609.084.378.155.75494.221,1.12994.031.173.066.347.092.52.059.379.098.756.137,1.132.019.186.048.375.062.561.044.557.068,1.109.067,1.653l-.004,1.1c-.001.314-.027.604-.043.905-.013.25-.015.51-.039.752-.027.281-.077.542-.118.81-.035.225-.058.46-.101.676-.054.263-.128.502-.194.751-.054.201-.097.413-.159.604-.078.242-.176.45795-.267.685-.071.177-.132.366-.211.534-.103.22-.226.415-.341.619-.086.153-.162.317-.255.46-.129.197-.276.37-.417.551-.099.126-.187.266-.292.383a7.21367,7.21367,0,0,1-.541.524c-.093.085-.176.183-.271.262a6.99717,6.99717,0,0,1-.911.634l14.096-8.192a6.82106,6.82106,0,0,0,.91-.633c.099-.082.184-.182.279-.269a7.22623,7.22623,0,0,0,.534-.518c.102-.115.188-.251.284-.373.144-.184.294-.36.424-.561.093-.143.169-.307.255-.459.116-.204.239-.4.342-.619.079-.168.14-.358.211-.534.09-.227.189-.445.267-.685.062-.192.105-.404.159-.605.066-.249.14-.489.193-.751.044-.213.067-.447.101-.669.041-.271.092-.534.119-.818.023-.236.025-.492.039-.737.015-.278.041-.546.043-.835v-.083l.003-1.101c.002-.544-.022-1.096-.066-1.653" transform="translate(0.0003 -0.00366)"/><path class="143de248-8cdf-45c5-b648-21567a82513c" d="M317.7944,783.21887c.185-.045.373-.084.565-.115.212-.035.428-.064.648-.082.141-.012.283-.023.428-.027.254-.007.514,0,.778.015.133.008.264.01.399.022a10.82129,10.82129,0,0,1,1.181.182c.011.002.022.003.033.006a12.37665,12.37665,0,0,1,1.259.352c.169.055.343.127.515.192.278.104.558.211.842.338.188.08295.379.18.57.27295.357.176.715.35,1.079.561l327.456,189.056c.539.312,1.06805.659,1.591,1.027.17.12.335.254.503.379.35.261.69806.529,1.039.814.242.201.48.412.717.625.185.167.371.331.552.504.255.242.503.496.75.75.169.173.34.341.506.52.261.281.514.574.766.868.143.165.29.325.429.494.308.373.605.759.898,1.148.076.101.157.197.231.298.025.033.048.07.072.104.464.633.9,1.292,1.321,1.961.118.186.233.375.347.564.382.633.74695,1.277,1.087,1.933.047.09.1.177.146.268.108.213.204.43.308.645.168.347.338.69495.492,1.047.105.238.199.478.298.718.139.337.28.674.407,1.014.069.182.129.364.193.546.132.371.258.741.373,1.112.065.207.124.414.183.62.103.35706.198.712.285,1.06805.05.203.1.405.145.607.083.379.155.756.221,1.132.03.173.066.347.092.52.059.379.098.756.137,1.133.019.187.048.375.062.56.044.557.068,1.109.066,1.653l-.003,1.101c-.001.313-.027.603-.043.903-.013.251-.015.512-.039.75305-.028.28095-.077.542-.118.811-.035.224-.058.46-.101.675-.054.263-.128.502-.194.751-.054.202-.097.413-.159.605-.078.241-.176.458-.267.684-.071.177-.132.36694-.211.535-.103.219-.226.415-.341.619-.087.152-.162.316-.256.46-.13.201-.28.377-.424.56-.096.122-.182.259-.284.373a6.72506,6.72506,0,0,1-.549.532c-.089.082-.17.177-.263.254a6.71626,6.71626,0,0,1-.911.634l14.096-8.191a6.92564,6.92564,0,0,0,.91-.634c.099-.081.184-.182.278-.268a7.24615,7.24615,0,0,0,.535-.518c.102-.115.188-.251.284-.373.144-.185.294-.36.424-.562.095-.144.172-.311.259-.465.115-.202.236-.395.338-.613.08-.171.142-.363.214-.543.089-.223.187-.438.264-.676.063-.194.106-.408.16-.611.066-.246.14-.483.192-.743.044-.217.06805-.453.10205-.679.041-.268.091-.528.118-.809.023-.237.025-.492.039-.738.014-.278.041-.545.043-.835v-.083l.00305-1.1c.002-.544-.023-1.097-.066-1.653-.015-.186-.043-.374-.063-.56-.033-.324-.06-.647-.108-.975-.008-.052-.02-.106-.028-.159-.027-.173-.062-.346-.093-.52-.065-.376-.137-.752-.22-1.13-.046-.203-.095-.406-.146-.611-.044-.178-.079-.356-.127-.535-.047-.176-.106-.353-.156-.53-.06-.207-.12-.413-.184-.62-.115-.371-.241-.741-.372-1.111-.065-.183-.125-.366-.193-.548-.022-.059-.04-.118-.063-.177-.107-.281-.231-.56-.347-.84-.099-.238-.191-.477-.295-.714-.156-.353-.327-.702-.49506-1.052-.103-.213-.199-.428-.306-.64-.012-.023-.022-.047-.033-.069-.035-.068-.078-.132-.113-.2-.34-.656-.705-1.299-1.087-1.932-.114-.191-.229-.378-.347-.566-.421-.669-.858-1.326-1.321-1.96-.019-.027-.036-.056-.056-.08295-.00494-.00806-.011-.013-.016-.02106-.075-.101-.155-.196-.23-.297-.294-.39-.591-.775-.899-1.149-.14-.169-.287-.33-.43-.496-.252-.293-.504-.585-.765-.866-.166-.179-.339-.349-.509-.523-.246-.253-.493-.505-.746-.745-.183-.175-.37-.34-.557-.508-.169-.153-.334-.314-.506-.461-.067-.057-.138-.105-.206-.161-.342-.28595-.691-.554-1.043-.817-.167-.125-.331-.257-.5-.377-.523-.368-1.052-.715-1.59-1.026l-327.457-189.057q-.27448-.159-.546-.303c-.18-.097-.355-.169-.534-.257-.19-.093-.381-.191-.569-.274-.284-.127-.563-.233-.842-.337-.172-.065-.346-.137-.515-.193-.043-.015-.088-.035-.13-.049-.382-.122-.759-.222-1.129-.303-.011-.003-.023-.003-.034-.006-.355-.076-.705-.135-1.048-.174-.045-.004-.087-.003-.132-.007-.135-.013-.266-.015-.399-.022-.264-.015-.524-.023-.779-.016-.144.005-.286.016-.427.027-.12.01-.243.008-.36.023-.099.012-.19.043-.288.059-.192.032-.38.06995-.565.116q-.28349.069-.555.16c-.179.059-.353.125-.524.198-.086.03595-.179.059-.263.098q-.25951.123-.507.267l-14.096,8.192a6.79005,6.79005,0,0,1,.77-.366c.171-.073.346-.138.523-.198q.273-.09.556-.16" transform="translate(0.0003 -0.00366)"/><path class="143de248-8cdf-45c5-b648-21567a82513c" d="M226.3241,621.09277c.185-.04492.374-.084.565-.115.213-.03491.428-.064.648-.08191.141-.011.284-.02307.428-.0271.254-.00793.514,0,.776.015.135.00806.266.009.402.02209a10.77419,10.77419,0,0,1,1.18.182l.033.00488a12.74433,12.74433,0,0,1,1.259.35205c.17.057.345.129.517.194.278.104.556.21008.839.33606.189.084.381.181.572.275.357.1759.715.349,1.078.559l289.002,166.855c.538.312,1.068.659,1.59,1.027.17.12.336.254.504.38.35.261.698.528,1.04.814.241.201.478.41095.714.624.186.167.373.331.555.505.255.242.503.496.751.75.168.173.339.341.505.519.25995.281.512.573.763.866.145.167.293.328.434.499.303.368.595.748.885,1.131.08.106.165.208.244.315.027.036.051.075.078.112.461.632.897,1.287,1.316,1.954.118.188.234.376.348.566.383.636.749,1.281,1.091,1.938.045.089.096.174.142.263.105.208.199.42.3.629.171.353.343.706.501,1.063.104.235.195.472.293.707.141.341.284.682.412,1.025.068.18005.127.36.191.54.131.373.258.745.375,1.119.064.206.124.412.183.618q.153.534.284,1.067c.05.20294.1.40594.145.60895.084.37805.155.754.221,1.13.031.173.066.348.092.52.059.38.098.758.138,1.135.019.186.047.373.062.559.044.556.068,1.108.066,1.652l-.003,1.101c-.001.315-.027.608-.043.91095-.014.248-.01605.505-.039.744-.027.28-.077.54-.118.808-.034.225-.058.461-.102.678-.052.261-.127.499-.193.746-.053.203-.097.415-.159.609-.078.242-.178.461-.269.688-.071.176-.131.364-.209.53-.105.223-.23.422-.348.629-.084.149-.158.309-.248.449-.133.204-.285.382-.431.569-.094.119-.178.253-.278.365a7.01911,7.01911,0,0,1-.549.531c-.09.083-.171.178-.264.254a6.62325,6.62325,0,0,1-.91.634l14.09595-8.191a6.82417,6.82417,0,0,0,.91-.634c.096-.079.178-.177.27-.261a7.23843,7.23843,0,0,0,.543-.524c.104-.118.192-.257.29-.383.142-.181.289-.353.418-.552.093-.142.168-.305.254-.457.116-.205.239-.4.343-.621.078-.167.138-.354.209-.53.091-.22705.19-.445.268-.688.063-.193.106-.406.161-.60895.065-.246.139-.484.192-.74506.044-.217.067-.453.102-.68.041-.267.09-.526.118-.806.023-.24.025-.498.038-.745.015-.276.041-.542.044-.828v-.083l.003-1.1c.002-.545-.023-1.097-.066-1.655-.015-.182-.043-.369-.062-.553-.033-.326-.061-.649-.109-.97705-.007-.054-.02-.108-.028-.162-.027-.172-.062-.346-.093-.519-.066-.377-.137-.753-.221-1.132-.045-.202-.095-.404-.144-.606-.04395-.179-.08-.356-.127-.535-.048-.178-.107-.356-.159-.534-.059-.206-.118-.412-.182-.618-.116-.373-.243-.744-.375-1.117-.064-.18-.124-.362-.191-.543-.022-.057-.04-.116-.062-.173-.108-.284-.233-.565-.349-.847-.098-.236-.19-.475-.294-.71-.157-.357-.33-.711-.501-1.064-.101-.209-.195-.421-.301-.628-.011-.023-.02-.045-.031-.068-.034-.066-.076-.129-.111-.195-.341-.657-.707-1.303-1.09-1.939-.11505-.19-.23-.377-.348-.565-.419-.666-.854-1.32-1.315-1.952-.021-.029-.04-.063-.062-.092a.20081.20081,0,0,0-.018-.023c-.076-.105-.159-.202-.236-.305-.292-.387-.587-.771-.893-1.141-.141-.171-.288-.332-.432-.498-.252-.293-.504-.586-.764-.866-.166-.179-.338-.348-.507-.521-.248-.254-.495-.507-.749-.748-.183-.174-.369-.338-.555-.506-.17-.153-.335-.315-.508-.462-.067-.058-.138-.105-.206-.161-.342-.286-.69-.554-1.041-.816-.168-.126-.333-.259-.503-.379-.523-.369-1.052-.716-1.59-1.026l-289.002-166.855c-.183-.106-.364-.20691-.545-.303-.181-.097-.355-.16895-.534-.257-.19-.093-.381-.191-.57-.275-.284-.126-.562-.23206-.841-.33606-.172-.06494-.346-.137-.517-.193-.042-.01489-.087-.03491-.129-.049q-.573-.18292-1.129-.303c-.011-.00305-.023-.00305-.034-.006-.355-.076-.705-.135-1.047-.17407-.045-.005-.088-.00293-.132-.007-.136-.014-.268-.015-.401-.022-.263-.015-.523-.02307-.777-.016-.145.005-.286.016-.428.027-.119.01-.243.00793-.36.02295-.099.01208-.19.043-.288.05908-.192.032-.38.06995-.565.116-.189.046-.373.099-.555.16-.179.059-.353.125-.525.198-.085.03589-.178.059-.262.0979q-.258.123-.506.26709h-.001l-14.096,8.192a7.0314,7.0314,0,0,1,.769-.36609c.171-.073.347-.13794.525-.198.181-.05994.367-.114.555-.16" transform="translate(0.0003 -0.00366)"/><path class="143de248-8cdf-45c5-b648-21567a82513c" d="M683.67859,758.17383c-.523-.369-1.053-.71594-1.591-1.027l-256.44-148.05591q-.27448-.15912-.547-.3031c-.179-.09595-.354-.16895-.532-.257-.192-.093-.383-.191-.572-.275-.284-.126-.563-.23193-.841-.337-.172-.064-.346-.137-.517-.193-.043-.01392-.087-.03491-.13-.049q-.573-.18292-1.129-.303l-.025-.004c-.359-.077-.712-.137-1.058-.176-.044-.005-.086-.002-.131-.007-.135-.014-.266-.015-.399-.022-.263-.015-.524-.024-.779-.016-.144.00391-.286.015-.427.027-.12.01-.244.00793-.361.02295-.1.01208-.19.042-.288.058-.191.0321-.38.071-.565.11609-.189.047-.373.1-.555.15991q-.267.08862-.525.198c-.086.036-.178.05908-.262.099q-.25946.123-.507.266l-14.096,8.192a6.98062,6.98062,0,0,1,.77-.366q.25648-.108.524-.197c.182-.05994.366-.114.555-.15991.185-.046.374-.08411.565-.11609.213-.03491.428-.063.649-.08093.141-.01208.283-.02307.427-.027.255-.00806.516,0,.779.01489.133.00806.264.009.399.02307a10.42152,10.42152,0,0,1,1.188.182l.026.005a12.39447,12.39447,0,0,1,1.26.35193c.17.056.343.12805.516.193.279.104.557.21106.841.337.189.084.381.181.571.275.358.176.715.349,1.08.55994l256.439,148.056c.539.311,1.069.657,1.592,1.026.169.12.334.253.502.378.351.263.699.53,1.04205.816.24.201.477.411.712.623.186.167.373.332.556.506.25305.241.5.493.747.746.17.174.342.344.509.523.259.28.511.571.762.863.144.167.292.329.433.5.301.364.591.741.878,1.12195.082.109.17.213.251.323.028.037.053.077.079.11505.461.63.896,1.285,1.31494,1.95q.17551.28052.346.564c.383.635.749,1.28,1.09,1.937.046.089.097.174.142.262.10706.209.201.423.303.634.17.351.341.702.498,1.057.104.236.195.474.293.71.141.34.284.679.41095,1.021.068.18005.128.362.192.543.131.371.258.742.374,1.115.064.206.123.412.182.618.103.35706.198.712.285,1.06805.05.20294.1.405.145.608.083.377.155.753.22,1.129.031.174.067.348.093.521.058.379.098.755.137,1.13.019.188.048.377.062.563.044.556.068,1.109.066,1.653l-.00305,1.101c-.001.312-.027.603-.043.903-.013.251-.015.512-.039.753-.027.281-.077.541-.118.809-.034.226-.058.461-.101.677-.054.262-.128.502-.194.751-.054.2-.097.412-.159.605-.078.24005-.176.458-.267.684-.071.177-.132.366-.211.534-.102.22-.226.415-.341.62-.087.152-.162.316-.256.459-.13.201-.28.377-.424.561-.096.122-.182.258-.284.373a7.02428,7.02428,0,0,1-.548.531c-.09.082-.171.178-.264.255a6.81027,6.81027,0,0,1-.911.634l14.096-8.191a7.00547,7.00547,0,0,0,.911-.634c.098-.081.183-.182.277-.269a7.25573,7.25573,0,0,0,.536-.517c.103-.117.19-.256.288-.381.142-.182.29-.355.41895-.554.096-.147.175-.317.264-.474.113-.2.233-.39.333-.604.081-.173.144-.367.217-.55.088-.221.185-.433.261-.669.064-.196.108-.414.162-.62.065-.243.139-.478.19-.735.045-.219.068-.456.103-.685.04-.265.09-.52295.117-.802.023-.242.026-.501.039-.752.015-.274.041-.537.043-.821,0-.028,0-.055.001-.08295l.002-1.1c.002-.545-.022-1.097-.066-1.655-.015-.183-.042-.37-.061-.554-.035-.326-.061-.65-.109-.978-.008-.054-.021-.107-.029-.161-.027-.172-.062-.345-.092-.517-.066-.377-.138-.754-.222-1.132-.045-.203-.094-.406-.144-.609-.044-.179-.08-.356-.127-.535-.047-.177-.107-.354-.157-.532-.06-.206-.119-.411-.183-.617-.116-.372-.243-.744-.374-1.115-.064-.182-.124-.363-.192-.545-.022-.058-.039-.116-.061-.174-.108-.283-.233-.562-.349-.843-.098-.237-.19-.476-.294-.712-.157-.356-.329-.706-.498-1.058-.10205-.211-.197-.424-.303-.633-.011-.022-.021-.045-.032-.067-.034-.066-.075-.129-.11-.195q-.51151-.98547-1.09-1.937c-.114-.19-.229-.37805-.347-.565-.418-.664-.852-1.317-1.311-1.947-.022-.031-.041-.064-.063-.094l-.019-.024c-.08-.107-.164-.209-.245-.316-.289-.383-.581-.762-.884-1.129-.141-.171-.28894-.332-.433-.499-.251-.292-.502-.584-.762-.864-.16705-.179-.33905-.348-.509-.52295-.247-.25305-.494-.505-.747-.746-.183-.174-.37-.339-.556-.506-.169-.152-.334-.314-.506-.46-.067-.058-.139-.106-.207-.163-.342-.286-.691-.554-1.043-.816-.16705-.125-.33105-.258-.5-.377" transform="translate(0.0003 -0.00366)"/><path class="143de248-8cdf-45c5-b648-21567a82513c" d="M501.27139,556.80908c-.522-.3689-1.052-.71594-1.59-1.02588l-211.773-122.26709c-.182-.106-.365-.207-.546-.304-.179-.09607-.355-.16907-.533-.256-.19-.094-.382-.191-.57-.275-.284-.126-.563-.23206-.841-.33606-.172-.06494-.347-.13794-.517-.194-.043-.014-.087-.03394-.13-.048-.381-.12207-.758-.223-1.128-.303-.012-.00305-.022-.004-.034-.006-.355-.076-.705-.135-1.047-.17407-.045-.005-.088-.00293-.132-.007-.137-.014-.268-.015-.402-.02307-.262-.01392-.522-.02295-.777-.01489-.144.005-.286.01489-.427.027-.119.01-.243.00793-.36.022-.099.01294-.191.043-.288.05994-.192.031-.38.07007-.566.11511q-.282.0705-.554.15991-.26852.08862-.525.198c-.086.036-.178.05908-.262.099q-.25951.123-.507.26709l-14.096,8.19092a6.84647,6.84647,0,0,1,.769-.365q.25648-.1095.524-.198c.182-.05994.367-.114.556-.16.185-.0459.373-.084.565-.116.212-.035.428-.064.648-.08093.141-.01209.283-.02307.428-.0271.254-.00793.514,0,.777.015.133.00708.265.009.401.02209a10.38212,10.38212,0,0,1,1.18.18188l.033.005a12.39436,12.39436,0,0,1,1.258.35205c.171.056.344.129.517.193.278.104.557.21106.841.337.189.084.379.181.57.27393.358.176.715.3501,1.079.56006l211.773,122.267c.538.311,1.068.65808,1.59,1.026.17.121.336.254.504.38.35.262.698.52905,1.04.814.241.202.479.41211.715.625.185.167.372.33105.553.504.255.243.504.49707.752.751.168.1731.339.34106.505.519.26.281.513.574.766.868.143.166.29.3269.43.496.304.368.597.749.887,1.13293.08.10608.164.207.243.31311.027.037.051.07593.078.11292.461.63208.896,1.28809,1.316,1.954.118.187.233.3761.348.566.382.634.748,1.278,1.088,1.934.047.09009.1.1781.145.26807.104.204.197.413.296.619.172.35693.347.71191.505,1.072.103.23389.195.47095.292.70593.141.34106.285.682.413,1.026.067.179.127.359.19.53906q.19954.55939.376,1.1189c.064.20605.123.41211.183.618q.153.53394.284,1.067c.05.204.1.407.145.61.084.377.155.75305.221,1.12805.03.174.066.349.092.52295.059.379.098.755.137,1.131.02.187.048.375.063.561.043.557.068,1.109.066,1.653l-.003,1.1c-.001.316-.027.609-.043.911-.014.248-.016.5061-.039.744-.028.28-.077.53906-.118.807-.034.22607-.058.463-.102.68005-.052.25793-.126.495-.191.74-.054.204-.098.41992-.162.614-.077.239-.175.455-.265.67993-.072.178-.133.369-.212.53906-.105.22192-.229.41992-.346.626-.085.149-.16.311-.251.451-.132.204-.284.38293-.43.569-.094.12-.179.25293-.278.365a7.23877,7.23877,0,0,1-.549.532c-.09.082-.171.177-.264.254a6.74983,6.74983,0,0,1-.91.634l14.096-8.192a6.89632,6.89632,0,0,0,.91-.63306c.093-.077.174-.173.264-.255a7.41777,7.41777,0,0,0,.549-.531c.101-.115.187-.25.283-.37195.144-.18506.294-.36.425-.562.093-.144.17-.309.256-.46106.115-.204.238-.39795.341-.61694.08-.172.142-.364.215-.546.089-.222.186-.43494.262-.671.065-.199.109-.417.164-.624.065-.24292.137-.476.189-.731.044-.218.068-.455.102-.681.041-.267.091-.526.118-.80591.023-.239.025-.49609.038-.744.015-.276.041-.541.043-.829.001-.0271.001-.05505.001-.083l.003-1.1001c.001-.54395-.023-1.09595-.066-1.653-.015-.18494-.043-.37195-.063-.558-.033-.324-.06-.647-.108-.973-.008-.054-.021-.109-.028-.162-.027-.173-.062-.34595-.093-.519-.066-.376-.137-.75293-.221-1.132-.045-.202-.095-.40405-.144-.60706-.04395-.178-.08-.356-.128-.53394-.047-.179-.106-.356-.157-.53406-.06-.20691-.119-.412-.183-.61792-.116-.374-.243-.746-.375-1.118-.064-.17993-.124-.361-.191-.542-.022-.057-.04-.116-.062-.173-.108-.285-.233-.566-.35-.848-.098-.23706-.189-.474-.293-.709-.158-.359-.331-.713-.503-1.067-.1-.208-.193-.41895-.298-.626-.012-.022-.021-.045-.033-.067-.034-.067-.076-.13-.11-.196q-.513-.98694-1.091-1.939c-.114-.18994-.229-.377-.346-.564-.42-.666-.854-1.321-1.315-1.952-.022-.03-.041-.062-.062-.092-.006-.00891-.013-.016-.019-.02393-.076-.104-.159-.201-.236-.30408-.292-.38794-.587-.771-.893-1.141-.14-.171-.288-.332-.432-.499-.252-.292-.503-.585-.764-.865-.166-.179-.338-.3479-.507-.522-.248-.25293-.495-.506-.749-.74792-.183-.17407-.369-.338-.555-.5061-.17-.152-.336-.31494-.508-.46191-.067-.057-.138-.1051-.206-.161-.342-.286-.69-.553-1.041-.81506-.168-.126-.333-.25891-.503-.379" transform="translate(0.0003 -0.00366)"/><path class="143de248-8cdf-45c5-b648-21567a82513c" d="M153.7646,293.95557c.186-.04492.374-.084.566-.116.213-.03491.428-.063.648-.08093.141-.01209.283-.02307.427-.0271.255-.00793.515,0,.778.015.134.00708.265.009.401.02209a10.79427,10.79427,0,0,1,1.179.182l.034.00488a12.66924,12.66924,0,0,1,1.259.35205c.169.056.343.12805.515.193.279.104.558.21106.842.337.188.084.379.17993.569.27393.358.176.716.3501,1.08.56006l211.779,122.271c.539.311,1.068.658,1.59,1.026.171.12.336.254.505.38.349.261.697.528,1.037.813.243.202.481.41406.719.627.184.167.369.33008.551.50208.254.24194.503.49695.751.751.168.172.339.34094.504.51794.263.28308.516.577.769.87207.142.16394.288.323.427.491.309.375.608.76306.903,1.155.074.098.153.191.226.291.025.03394.048.07092.073.105.462.634.899,1.291,1.32,1.96.117.187.233.376.347.56506.382.63293.746,1.276,1.086,1.92993.048.09106.1.18005.147.272.107.21106.203.426.305.639.169.349.34.698.496,1.052.104.23706.197.47705.295.715.14.33911.282.676.41,1.01611.067.18188.128.36389.192.5459.131.37.257.74207.373,1.114.064.20605.124.412.183.618.103.35693.197.713.285,1.069.05.202.099.405.144.60706.084.37891.156.755.222,1.132.03.173.065.347.092.519.058.38.097.757.137,1.13391.019.186.047.374.062.55908.043.557.067,1.11.066,1.65393l-.003,1.1c-.001.31311-.027.604-.043.90405-.013.251-.016.511-.039.75305-.028.281-.077.541-.118.80994-.035.225-.058.46-.102.676-.052.26-.126.498-.192.745-.054.203-.098.417-.16.611-.077.23608-.174.4491-.262.671-.073.182-.136.375-.216.548-.102.217-.224.41-.338.61206-.087.15393-.164.32092-.259.46594-.13.201-.28.37708-.424.561-.096.123-.182.25806-.284.373a7.24485,7.24485,0,0,1-.535.51794c-.094.087-.179.187-.278.26807a6.8,6.8,0,0,1-.91.63391l14.096-8.192a6.73568,6.73568,0,0,0,.91-.63391c.098-.08105.184-.181.278-.26807a7.05129,7.05129,0,0,0,.535-.51794c.102-.114.188-.25.284-.373.143-.184.293-.36.424-.561.094-.1449.172-.31091.259-.46594.114-.202.236-.395.337-.61206.08-.16992.142-.36194.214-.54089.09-.224.188-.44006.265-.6781.062-.193.105-.407.16-.60889.066-.24707.139-.48511.192-.74609.044-.21594.067-.453.102-.678.041-.269.09-.52893.118-.809.023-.23706.025-.493.038-.738.015-.27893.041-.546.044-.835v-.083l.003-1.10107c.002-.54395-.023-1.09595-.066-1.653-.015-.18494-.043-.373-.062-.55994-.034-.3241-.061-.64709-.109-.974-.008-.0531-.02-.10706-.028-.16-.027-.173-.062-.34607-.093-.519-.066-.376-.137-.752-.22-1.13-.046-.204-.096-.407-.145-.611-.044-.178-.081-.35706-.128-.536-.047-.177-.106-.354-.157-.531-.059-.20605-.119-.411-.183-.61694-.115-.373-.242-.744-.373-1.11609-.065-.18091-.125-.36291-.193-.54395-.022-.059-.04-.119-.062-.177-.108-.283-.232-.562-.348-.843-.098-.23706-.19-.476-.294-.71106-.157-.355-.328-.705-.497-1.05688-.103-.21106-.198-.425-.305-.635-.011-.02307-.021-.047-.033-.07007-.035-.068-.077-.13293-.113-.20093-.34-.655-.704-1.2981-1.086-1.93005-.115-.191-.229-.379-.348-.567-.42-.667-.856-1.323-1.317-1.955-.021-.02905-.038-.059-.059-.087a.188.188,0,0,0-.017-.022c-.071-.097-.148-.188-.22-.28406-.297-.3949-.597-.78394-.908-1.161-.14-.16992-.287-.33-.43-.496-.253-.293-.504-.58594-.765-.866-.166-.18005-.338-.349-.507-.522-.248-.254-.495-.50708-.749-.748-.182-.173-.367-.337-.553-.50293-.17-.15405-.336-.317-.509-.46411-.068-.058-.139-.106-.207-.163-.342-.285-.689-.552-1.039-.813-.168-.126-.333-.259-.503-.379-.523-.369-1.053-.71594-1.591-1.027l-211.779-122.27q-.2745-.15894-.546-.304c-.18-.09607-.355-.16907-.534-.257-.19-.093-.381-.19006-.569-.274-.285-.126-.563-.23206-.842-.337-.172-.064-.345-.136-.515-.192-.043-.01489-.088-.036-.13-.049-.383-.12195-.758-.223-1.129-.303-.011-.00305-.022-.00305-.033-.006-.356-.076-.706-.136-1.049-.17407-.045-.005-.087-.00293-.131-.007-.136-.014-.267-.015-.401-.022-.263-.016-.523-.02307-.778-.016-.144.00391-.285.016-.426.027-.12.01-.244.00793-.361.02295-.099.01209-.19.042-.288.05908-.192.032-.38.06995-.566.116-.188.04492-.373.099-.554.15894-.179.06006-.354.125-.525.198-.085.037-.178.05908-.262.099q-.25951.123-.507.26709l-14.096,8.192a6.61139,6.61139,0,0,1,.769-.36609c.171-.073.347-.13892.525-.198.181-.05994.366-.114.554-.16" transform="translate(0.0003 -0.00366)"/></g></svg>