<svg id="4513068b-a266-4bbe-b908-1b1214d5ff93" data-name="Layer 1" xmlns="http://www.w3.org/2000/svg" xmlns:xlink="http://www.w3.org/1999/xlink" width="304.37713" height="442.28682" viewBox="0 0 304.37713 442.28682"><defs><style>.\34 8cf7855-0ff3-46ab-a3ed-08a0ea66e85e{fill:none;}.\36 630a2af-22b5-44da-b54d-81382ce7c7c8{clip-path:url(#d27eb14f-817e-4a01-897d-74a79d6e6ffb);}.edc152a9-97d0-43cd-978e-0c9d9d641949{fill:#eceef7;}.\36 9be0a68-b5d7-42d3-b544-7be975b19529{fill:#c6c8d4;}.\39 9703ab7-5ea6-46fb-81ea-40a6b61ac4c0{fill:#f7f8fa;}.\34 48ac855-68b0-4264-babf-a345b3e8a7a9{fill:#d4d6e2;}.a0faee4e-3ee7-42ba-8bed-23ab000fed4f{fill:#2648c1;}.\39 81f99f4-5a33-4a6d-854e-0ab1b95ae721{fill:#284bcc;}.\36 91e94e8-1922-4a58-bbe8-bee29f5b5469{fill:#1d3794;}.\37 bc9beb1-b94b-4f2e-a5ba-8bf735a0c1d8{fill:#315dfa;}.bc6b23e5-8b23-43ff-9b1d-3562566d4c86{fill:#8d97b3;}.\33 d484c57-0524-4971-8ea1-b0107e7c9e82{fill:#d3d6e2;}</style><clipPath id="d27eb14f-817e-4a01-897d-74a79d6e6ffb" transform="translate(0.00054 0.00089)"><rect class="48cf7855-0ff3-46ab-a3ed-08a0ea66e85e" width="304.37701" height="442.28601"/></clipPath></defs><title>icon-three-years</title><g class="6630a2af-22b5-44da-b54d-81382ce7c7c8"><path class="edc152a9-97d0-43cd-978e-0c9d9d641949" d="M137.9743,23.3931c.059-.012.113-.023.171-.035.433-.09.848-.178,1.242-.263.031-.006.064-.013.094-.019.404-.087.781-.17,1.143-.25.063-.014.125-.028.187-.041q.50851-.11554.957-.217c.066-.015.127-.029.19-.044.295-.068.575-.133.828-.193l.051-.012c.259-.062.493-.118.706-.17l.064-.016c.208-.051.388-.094.549-.136.03-.006.057-.013.086-.021.149-.037.277-.069.381-.096.022-.006.034-.008.053-.013.093-.025.172-.045.219-.057l15.402-8.951c-.047.013-.127.033-.219.056-.017.005-.033.009-.053.014-.102.026-.233.06-.381.097-.027.007-.057.013-.086.021-.161.04-.341.085-.548.135-.021.006-.044.011-.065.017-.21.05-.443.106-.697.167l-.063.014c-.252.06-.531.125-.825.193-.062.014-.124.029-.189.044q-.45.102-.958.216c-.061.014-.124.028-.187.041-.361.081-.74.164-1.142.25l-.095.021c-.394.084-.81.172-1.242.262-.057.011-.112.023-.171.036-.439.091-.901.184-1.378.279-.091.019-.183.036-.275.055-.503.099-1.021.201-1.562.304-.046.009-.095.018-.141.027-.487.093-.993.186-1.51.281-.153.028-.306.056-.461.084-.543.099-1.099.198-1.674.298-.04.007-.078.014-.119.02-.608.106-1.238.212-1.879.318-.165.027-.333.055-.5.082q-.8505.13953-1.738.277c-.106.017-.208.033-.315.05-.681.105-1.38.21-2.092.314-.176.026-.355.051-.533.078q-.8955.129-1.82.254c-.164.023-.326.046-.491.068q-1.12349.15147-2.291.299c-.166.021-.336.042-.504.062q-.9795.12149-1.987.238c-.201.024-.4.047-.603.071-.813.093-1.637.182-2.477.27-.146.016-.295.03-.442.045q-1.083.111-2.195.216c-.226.021-.451.042-.677.063-.686.063-1.383.123-2.083.181-.262.022-.519.045-.783.067q-1.416.11252-2.869.214c-.177.013-.36.023-.539.036-.793.052-1.591.103-2.4.15-.337.02-.68.037-1.02.056q-.9975.054-2.009.1c-.379.018-.759.034-1.14.05q-.9975.04051-2.009.075c-.379.013-.756.026-1.136.036-.756.023-1.52.039-2.287.055-.294.006-.585.014-.88.019q-1.5855.024-3.197.03-1.90051.006-3.837-.02c-.353-.005-.711-.014-1.066-.021-.941-.017-1.887-.036-2.84-.065-.483-.014-.971-.034-1.456-.051-.839-.031-1.68-.064-2.526-.104-.527-.024-1.056-.054-1.585-.082q-1.239-.06747-2.488-.149c-.831-.055-1.661-.108-2.499-.172-1.561-.121-3.101-.27-4.631-.429q-.603-.06148-1.201-.13-1.998-.2205-3.959-.48c-.19-.026-.383-.047-.573-.073-1.646-.224-3.264-.472-4.864-.734-.34-.056-.681-.111-1.02-.168-1.57-.265-3.12-.543-4.64-.838-.213-.041-.421-.085-.633-.127q-2.202-.435-4.332-.906c-.213-.047-.429-.092-.641-.14q-2.2305-.49947-4.368-1.033c-.448-.111-.894-.221-1.334-.335q-.5265-.13353-1.048-.268c-.588-.154-1.167-.309-1.744-.465-.308-.083-.619-.165-.924-.249-.697-.193-1.383-.386-2.063-.581-.17-.049-.345-.097-.515-.146q-1.2645-.366-2.486-.737c-.277-.084-.544-.168-.818-.252-.55-.169-1.099-.339-1.635-.509-.32-.1-.631-.202-.945-.304-.479-.154-.957-.308-1.424-.462-.321-.106-.635-.211-.951-.318-.446-.149-.889-.299-1.324-.448-.313-.107-.621-.215-.928-.321-.414-.145-.822-.288-1.224-.432q-.4995-.177-.989-.354c-.383-.138-.76-.277-1.132-.414-.318-.117-.635-.234-.945-.35-.361-.135-.714-.269-1.064-.402-.302-.116-.605-.231-.9-.345-.341-.132-.673-.262-1.003-.392-.282-.11-.564-.221-.837-.33-.302-.121-.593-.238-.884-.356-.312-.126-.623-.252-.923-.375-.275-.114-.541-.224-.806-.334-.288-.121-.576-.241-.853-.358-.255-.108-.502-.214-.747-.318-.264-.113-.527-.227-.78-.336-.234-.102-.461-.201-.685-.3-.239-.105-.477-.21-.704-.311-.199-.089-.391-.175-.58-.261-.269-.121-.531-.239-.78-.354-.163-.074-.324-.148-.478-.219-.244-.113-.475-.221-.697-.325-.134-.063-.271-.127-.397-.187-.224-.106-.43-.204-.628-.3-.097-.047-.204-.097-.295-.141-.237-.115-.452-.22-.647-.317-.031-.015-.071-.034-.101-.049l-.112-.055c-.142-.071-.274-.137-.389-.195-.054-.027-.104-.052-.152-.077-.08-.04-.155-.078-.218-.11-.039-.021-.083-.043-.116-.06-.054-.028-.099-.051-.134-.069-.013-.007-.033-.017-.043-.023l-15.403,8.952c.041.021.106.054.185.094.032.017.065.035.103.054.067.033.142.071.227.115.048.024.09.045.144.073.123.062.262.13.416.208.03.014.054.026.086.042l.016.008c.034.017.081.039.117.057.188.093.389.191.615.301.095.047.203.097.305.146.198.096.399.192.621.297.127.061.263.123.398.187.223.105.452.212.697.325.154.071.314.144.477.219.251.115.511.233.783.355.11.05.206.095.319.146.082.036.175.077.258.114.228.101.464.205.705.31.225.1.45.199.686.301.251.11.511.221.775.333.248.107.496.213.754.322.274.117.558.235.843.353.269.112.537.224.816.339.299.123.609.248.92.374.2.081.389.159.594.241.094.038.195.077.288.114.272.109.551.218.83.327.336.133.672.265,1.019.399.291.112.589.225.889.34.351.134.705.268,1.068.404.31.116.626.232.945.351.372.136.748.274,1.132.413q.4875.177.988.354c.202.072.394.143.598.214.204.072.419.145.626.217.307.107.615.214.928.321.436.151.88.3,1.326.449.315.107.629.212.949.318.466.154.943.307,1.42.461.317.102.629.204.951.306.533.168,1.078.336,1.624.504.277.086.549.171.829.257.044.013.086.026.13.039q1.158.351,2.355.697c.17.049.345.097.516.146.68.195,1.364.389,2.06.58.306.084.618.167.927.25.577.156,1.156.312,1.744.465q.519.135,1.043.267c.306.079.605.159.913.236.139.034.286.065.425.099q2.142.53247,4.369,1.035c.211.047.427.092.639.139q2.1285.471,4.332.905c.152.031.296.065.449.095.06.012.124.022.184.033,1.521.295,3.071.573,4.639.837q.51.087,1.023.169c1.6.261,3.217.509,4.863.734l.123.018c.148.021.302.035.45.055q1.95749.261,3.958.48c.4.045.799.088,1.202.13,1.529.159,3.069.307,4.631.428q.7905.06152,1.576.116c.31.023.614.036.923.056q1.248.08253,2.487.15.795.04349,1.586.082,1.269.06,2.526.104c.486.017.972.037,1.455.052.954.028,1.899.047,2.842.064.354.006.712.017,1.064.022q1.9365.024,3.838.019c.028,0,.058.001.086.001q1.569-.006,3.111-.032c.292-.004.58-.012.871-.018q1.158-.02248,2.302-.054c.376-.011.749-.025,1.124-.037.675-.023,1.348-.047,2.015-.075q.57151-.02252,1.139-.05,1.0125-.04646,2.01-.1c.34-.019.682-.036,1.02-.056q1.21351-.0705,2.402-.151c.178-.012.359-.023.537-.034q1.4535-.102,2.869-.216c.263-.021.52-.044.78-.066.521-.044,1.044-.086,1.557-.131.178-.017.351-.034.528-.05.227-.021.452-.042.677-.064q1.11151-.1035,2.196-.216c.147-.014.296-.029.442-.044q1.25851-.13051,2.478-.271c.202-.022.4-.046.601-.069q1.008-.117,1.989-.24c.167-.02.336-.041.501-.061q1.1685-.147,2.293-.299c.165-.022.326-.045.49-.067q.927-.12753,1.821-.256c.178-.026.357-.051.532-.077.713-.104,1.413-.208,2.094-.314.105-.016.206-.033.31-.05q.891-.13646,1.743-.277c.166-.027.332-.055.497-.082.642-.105,1.272-.212,1.881-.317l.118-.021c.576-.1,1.132-.199,1.677-.298.154-.028.305-.055.457-.084.518-.094,1.024-.188,1.512-.281.046-.009.095-.019.141-.027.424-.081.838-.161,1.239-.24.109-.021.212-.043.319-.063.095-.02.188-.038.282-.057.476-.094.937-.188,1.375-.279" transform="translate(0.00054 0.00089)"/><path class="69be0a68-b5d7-42d3-b544-7be975b19529" d="M288.9743,175.54932c-.015,5.307-.301,106.122-.415,146.372-.001.446-.007.893-.009,1.339q-.01653,2.53951-.064,5.08c-.004.2-.006.4-.011.601q-.05548,2.652-.164,5.302-.024.62851-.052,1.258-.0645,1.476-.149,2.946c-.024.42-.045.84-.071,1.26q-.12749,2.076-.292,4.145c-.019.235-.044.469-.064.704q-.129,1.53749-.281,3.071c-.044.437-.096.871-.143,1.307-.089.817-.178,1.636-.278,2.45-.071.582-.152,1.162-.229,1.743-.08.602-.158,1.203-.246,1.803-.085.588-.18,1.172-.273,1.758-.093.595-.185,1.192-.286,1.786-.105.62-.222,1.237-.335,1.854-.099.535-.194,1.072-.299,1.604-.123.628-.258,1.252-.391,1.877-.111.519-.216,1.042-.333,1.56-.14.618-.293,1.232-.442,1.847-.126.524-.248,1.05-.381,1.572-.16.621-.334,1.239-.504,1.857-.141.508-.274,1.02-.421,1.527-.145.501-.306.997-.459,1.495-.198.647-.391,1.295-.601,1.937-.167.507-.349,1.01-.523,1.516-.216.624-.427,1.249-.655,1.868-.144.392-.301.78-.451,1.17-.308.807-.622,1.613-.953,2.412-.187.451-.385.897-.579,1.344-.316.73-.639,1.457-.975,2.179-.296.639-.598,1.275-.911,1.908-.116.235-.229.471-.347.704q-.714,1.41-1.48,2.796c-.101.184-.209.364-.311.546q-.642,1.137-1.321,2.259-.24152.3975-.488.796-1.67848,2.7-3.594,5.304c-.16.218-.323.436-.486.653-.654.87-1.322,1.734-2.019,2.587l-.002.002c-.695.85-1.421,1.688-2.161,2.52q-.2775.312-.559.622c-.753.83-1.52,1.654-2.32,2.465-.797.809-1.626,1.605-2.47,2.394q-.3165.29549-.637.589-2.571,2.355-5.437,4.586-.357.27752-.719.553-2.90549,2.214-6.122,4.293-.4035.25951-.81.518c-1.088.687-2.192,1.367-3.334,2.031l15.402-8.951c1.142-.663,2.247-1.344,3.334-2.032q.408-.25648.81-.517,3.219-2.07749,6.121-4.291.363-.2775.722-.556c.953-.741,1.89-1.488,2.793-2.251l.008-.007c.906-.764,1.777-1.543,2.634-2.327q.321-.294.637-.59c.844-.789,1.673-1.584,2.471-2.393.799-.811,1.566-1.634,2.319-2.464.188-.207.374-.415.56-.623.739-.832,1.465-1.67,2.16-2.521l.002-.001c.697-.853,1.365-1.717,2.02-2.587q.24449-.32552.486-.653,1.6875-2.29051,3.195-4.654c.137-.216.265-.436.399-.651q.246-.396.486-.793.6795-1.12049,1.32-2.258c.104-.184.212-.365.314-.55q.768-1.386,1.479-2.795c.118-.233.231-.47.348-.704.207-.418.419-.835.619-1.256.102-.216.191-.435.292-.652.336-.722.658-1.449.975-2.179.194-.447.391-.893.578-1.344.331-.799.645-1.604.954-2.412.117-.307.248-.609.362-.917.032-.084.058-.169.089-.253.228-.619.439-1.244.654-1.868.175-.505.356-1.008.523-1.516.21-.642.404-1.291.602-1.936.135-.442.281-.88.411-1.323.017-.057.03-.116.047-.173.148-.506.281-1.018.421-1.527.17-.619.344-1.235.504-1.857.133-.519.254-1.042.38-1.563.129-.532.266-1.061.387-1.595.02-.087.037-.176.057-.264.115-.512.22-1.028.329-1.544.134-.63.271-1.26.395-1.892.104-.529.198-1.059.296-1.588.091-.499.191-.995.278-1.495.021-.125.039-.251.06-.376.101-.591.191-1.185.285-1.778.092-.588.188-1.174.274-1.763.086-.597.164-1.196.244-1.794.062-.464.132-.926.19-1.391.015-.121.026-.243.041-.364.099-.808.187-1.617.275-2.428.048-.443.101-.885.146-1.329.103-1.018.193-2.038.28-3.061.019-.22.043-.441.061-.663l.003-.047c.112-1.379.207-2.761.293-4.146.026-.42.047-.842.07-1.263q.08249-1.46551.15-2.937c.009-.22.023-.44.033-.659.008-.203.011-.408.019-.612q.1035-2.64148.164-5.291c.004-.207.007-.413.011-.619q.04953-2.532.063-5.065c.001-.175.006-.351.006-.526.002-.271.003-.543.004-.814.114-40.25.4-141.066.414-146.371Z" transform="translate(0.00054 0.00089)"/><path class="99703ab7-5ea6-46fb-81ea-40a6b61ac4c0" d="M144.8952,21.81c1.751,2.484,35.029,49.685,74.947,92.748,38.407,41.421,67.596,60.013,69.132,60.991-.015,5.307-.301,106.122-.414,146.372-.115,40.259-5.716,81.003-50.582,104.585-44.865,23.575-91.798,13.894-94.268,13.384-2.465-2.34-49.299-46.794-93.885-122.014C5.2392,242.649-.11279,195.581.00121,155.323c.115-40.251.4-141.067.415-146.372,1.537.796,30.737,15.915,69.245,18.9a248.29553,248.29553,0,0,0,75.234-6.041" transform="translate(0.00054 0.00089)"/><path class="448ac855-68b0-4264-babf-a345b3e8a7a9" d="M287.08661,174.312c.063.042.118.079.179.119q.24751.165.462.308c.058.038.115.076.17.112.169.111.323.212.455.298.025.017.042.027.066.043.118.077.218.141.303.195.025.017.042.028.064.042.08.051.148.095.189.12l15.402-8.95c-.04-.026-.11-.071-.188-.121-.02-.013-.043-.027-.065-.041-.079-.052-.179-.116-.288-.187-.03-.019-.054-.035-.086-.055-.13-.085-.285-.186-.45-.295-.054-.035-.113-.074-.17-.112-.14-.092-.293-.195-.454-.302-.064-.043-.125-.083-.192-.128q-.333-.22353-.72-.485c-.061-.042-.127-.088-.19-.131-.182-.123-.379-.258-.577-.395-.225-.154-.466-.321-.712-.492-.159-.11-.317-.22-.485-.337-.279-.195-.58-.407-.883-.622-.156-.109-.304-.213-.466-.328q-.672-.4785-1.413-1.013c-.034-.023-.062-.044-.096-.068-.526-.38-1.082-.786-1.659-1.21-.209-.154-.434-.321-.65-.482-.356-.262-.711-.525-1.085-.804-.241-.181-.495-.373-.744-.56-.371-.279-.744-.56-1.132-.854-.269-.205-.549-.42-.826-.632-.385-.295-.773-.592-1.172-.901-.301-.233-.611-.474-.92-.715-.397-.309-.798-.621-1.208-.944-.337-.264-.68-.536-1.025-.809q-.55952-.444-1.133-.902c-.359-.287-.724-.58-1.091-.876q-.58951-.474-1.191-.963c-.38-.308-.766-.624-1.154-.942q-.61052-.49951-1.234-1.015c-.401-.332-.808-.669-1.217-1.01q-.633-.528-1.28-1.071-.6465-.54451-1.308-1.104c-.393-.334-.789-.67-1.189-1.012q-.68253-.58351-1.38-1.184c-.41-.354-.82-.708-1.237-1.071-.472-.409-.951-.829-1.432-1.25-.422-.371-.845-.741-1.274-1.121-.492-.434-.992-.88-1.492-1.326-.429-.382-.856-.763-1.291-1.153-.585-.527-1.179-1.065-1.775-1.607-.331-.3-.658-.595-.992-.9q-1.1895-1.08751-2.41-2.219c-.149-.139-.294-.27-.444-.41q-1.4415-1.33951-2.919-2.736c-.295-.28-.597-.57-.895-.852-.703-.669-1.409-1.341-2.124-2.028-.318-.306-.639-.618-.959-.927q-1.0155-.9825-2.045-1.988-.54149-.5295-1.085-1.066-1.038-1.01848-2.089-2.067c-.334-.332-.666-.661-1.002-.998q-1.431-1.43248-2.885-2.91c-.077-.079-.154-.156-.231-.235q-1.536-1.5645-3.1-3.187c-.296-.307-.595-.618-.892-.928q-1.179-1.227-2.371-2.484c-.311-.328-.621-.655-.933-.985-1.067-1.131-2.14-2.274-3.222-3.441q-3.357-3.621-6.645-7.274c-.076-.085-.154-.169-.23-.254q-3.24449-3.603-6.409-7.208c-.102-.116-.202-.23-.302-.345q-1.75948-2.004-3.489-4.003l-.381-.44q-1.7325-2.00249-3.434-3.996l-.318-.372q-1.7655-2.07-3.495-4.121c-.053-.063-.107-.126-.16-.188q-1.797-2.13451-3.554-4.244l-.11-.134q-2.2785-2.73752-4.483-5.426c-.021-.025-.042-.052-.063-.077q-2.1855-2.66551-4.289-5.269c-.063-.078-.128-.157-.191-.235q-2.0595-2.54851-4.037-5.027c-.08-.101-.161-.203-.242-.304q-1.95449-2.451-3.821-4.819-.147-.186-.292-.373-1.2765-1.62-2.509-3.198c-.102-.131-.204-.26-.306-.39q-1.23-1.578-2.416-3.108c-.097-.125-.195-.252-.292-.376q-1.20152-1.55251-2.353-3.052l-.201-.261q-1.173-1.52847-2.292-2.995c-.056-.075-.114-.149-.17-.223q-1.1475-1.50751-2.237-2.946c-.024-.033-.049-.065-.073-.097q-1.119-1.47752-2.172-2.88l-.026-.035q-1.0575-1.40849-2.045-2.732l-.056-.076q-.96151-1.28847-1.855-2.494c-.061-.083-.12-.163-.181-.245q-.40949-.552-.804-1.087c-.089-.121-.177-.239-.265-.358-.24-.325-.476-.646-.707-.96-.091-.123-.182-.248-.272-.37-.235-.321-.465-.634-.691-.942-.064-.088-.131-.178-.194-.264q-.417-.56854-.809-1.107c-.093-.126-.18-.245-.269-.369-.181-.247-.36-.493-.533-.73-.089-.123-.177-.244-.265-.365-.16-.22-.318-.437-.471-.649-.091-.124-.181-.248-.269-.369-.164-.228-.324-.448-.479-.663-.055-.076-.112-.156-.166-.23q-.639-.885-1.172-1.627c-.063-.088-.123-.171-.184-.256-.113-.157-.223-.31-.328-.457-.056-.079-.112-.158-.167-.233-.098-.138-.19-.268-.28-.394-.058-.08-.117-.163-.171-.239-.267-.374-.5-.701-.691-.972-.018-.024-.034-.046-.051-.071-.065-.092-.124-.175-.179-.253-.046-.065-.091-.129-.131-.184-.011-.016-.022-.031-.032-.046-.105-.149-.186-.264-.238-.337l-15.402,8.951c.05.071.135.192.238.337.011.015.02.029.032.045.044.062.09.129.143.202.029.042.061.087.093.133.05.07.099.139.154.217q.28052.393.662.929c.054.077.113.159.17.239.091.127.183.256.281.393.055.076.11.154.167.234q.159.22046.328.457c.062.087.123.171.187.261.134.187.275.382.419.583.047.066.091.126.14.194.187.259.382.53.585.81.084.117.174.241.261.362.132.182.265.367.404.558q.135.18452.273.377c.154.212.311.428.472.65.088.121.175.24.265.364.173.237.351.482.532.73.091.124.178.244.271.371q.38251.5235.786,1.076c.101.137.207.282.31.422.186.254.374.509.566.772.114.154.23.311.346.47q.3075.41547.623.845c.112.152.223.302.337.456q.34048.462.695.94c.077.105.151.205.23.311.014.019.03.04.044.06q.86849,1.17146,1.805,2.427c.035.047.068.092.104.139q.96451,1.293,1.995,2.665l.096.129q1.03649,1.37851,2.138,2.836c.024.031.049.065.074.097q1.08749,1.43848,2.237,2.946c.056.073.113.149.17.222q1.119,1.467,2.292,2.996c.066.086.134.174.201.261q1.1505,1.49849,2.353,3.051.1455.1875.292.377,1.185,1.53,2.416,3.107c.102.13.203.261.305.39q1.233,1.578,2.51,3.2c.058.075.114.146.173.221.039.049.08.101.119.15q1.866,2.36852,3.821,4.82c.08.102.161.202.242.304q1.977,2.4765,4.037,5.027c.064.078.127.157.191.235q2.1045,2.60248,4.289,5.269c.021.025.042.052.063.077q2.202,2.685,4.483,5.426c.022.027.043.054.066.081.015.018.03.035.044.052q1.755,2.109,3.554,4.244c.053.063.107.126.16.189q1.725,2.04749,3.486,4.112c.113.132.226.263.339.395q1.6905,1.98152,3.412,3.971c.133.154.267.308.4.462q1.72048,1.986,3.468,3.979c.074.085.147.169.222.254.031.036.064.072.096.109q3.16049,3.59848,6.404,7.202c.078.086.154.171.231.256q3.288,3.6465,6.645,7.272l.01.012q1.61852,1.74449,3.212,3.43c.312.331.622.657.933.985q1.1925,1.257,2.371,2.484c.297.31.595.621.891.928q1.54351,1.5975,3.063,3.149c.014.014.028.028.041.042.066.067.131.131.196.198q1.4745,1.5,2.922,2.948c.331.331.657.654.985.981.707.703,1.41,1.401,2.107,2.086q.53849.5295,1.072,1.051,1.03651,1.0155,2.058,2.002c.318.307.637.617.952.92.132.127.267.259.399.386.58.556,1.15,1.095,1.723,1.639.298.284.601.575.898.855q1.479,1.398,2.923,2.741c.133.124.262.241.395.364q1.242,1.152,2.46,2.265c.327.3.648.589.973.885.462.42.93.847,1.386,1.257.136.124.268.239.403.361.434.389.859.768,1.286,1.149.503.449,1.006.898,1.502,1.335.423.374.84.739,1.258,1.106.487.426.971.851,1.449,1.266.412.358.818.708,1.224,1.058q.699.603,1.386,1.19c.403.345.8.682,1.196,1.018.231.195.469.401.698.594.203.171.395.33.596.499.437.367.868.727,1.296,1.084q.606.50551,1.201.997.633.522,1.25,1.028.576.4725,1.14.931.6075.49351,1.199.969.549.44247,1.087.873c.386.308.765.61,1.142.908.19.15.389.311.577.459.149.118.287.224.435.341.412.323.813.637,1.212.947.311.243.622.485.926.72.397.306.781.601,1.164.894.278.213.559.429.83.634.391.297.765.579,1.14.861.244.184.494.372.732.55.383.287.748.557,1.112.826.171.127.355.265.523.388.035.025.065.047.1.073.58.426,1.138.833,1.667,1.216.015.011.028.019.043.03.512.37.997.717,1.459,1.046.167.118.318.224.478.337.3.212.596.421.873.614.169.118.325.227.485.338.248.172.488.338.715.493.061.043.135.094.194.135.129.089.247.168.368.251.07.047.142.097.209.142q.387.26248.719.485" transform="translate(0.00054 0.00089)"/><path class="a0faee4e-3ee7-42ba-8bed-23ab000fed4f" d="M159.8923,243.84521q-4.761.921-13.029-3.848-1.017-.588-2.027-1.222c-.218-.136-.436-.281-.654-.42-.456-.292-.911-.587-1.365-.892-.256-.172-.51-.349-.765-.526-.419-.289-.836-.582-1.252-.883q-.393-.28352-.785-.574-.62249-.462-1.243-.942c-.229-.176-.458-.353-.687-.534q-1.3125-1.035-2.614-2.151c-.165-.141-.329-.285-.493-.428-.9-.782-1.798-1.584-2.69-2.423q-1.71751-1.614-3.333-3.296c-.172-.178-.337-.364-.508-.544q-1.29449-1.365-2.525-2.77c-.189-.216-.379-.432-.565-.65q-1.3605-1.58549-2.642-3.223c-.126-.163-.249-.327-.374-.49-.889-1.157-1.756-2.327-2.585-3.522l-13.743,7.986c.03.044.061.088.092.132.801,1.151,1.637,2.278,2.493,3.391.125.163.248.327.374.489.097.124.19.252.287.376.761.965,1.551,1.911,2.354,2.848.187.218.377.433.566.65.275.315.543.634.822.945.555.618,1.13,1.22,1.703,1.825.171.18.335.365.508.545q1.2945,1.341,2.648,2.645.34051.327.685.651c.891.837,1.788,1.638,2.688,2.42.165.144.33.289.495.431q1.302,1.113,2.613,2.15c.069.054.137.115.206.168.161.127.323.244.485.368q.618.477,1.238.938c.262.194.525.387.788.576q.6225.45149,1.25.882c.255.177.51.355.766.526.454.306.909.601,1.365.893.218.14.435.283.653.42q1.011.63151,2.028,1.222,8.265,4.77,13.029,3.847a5.79816,5.79816,0,0,0,1.841-.668l13.744-7.986a5.81237,5.81237,0,0,1-1.842.668" transform="translate(0.00054 0.00089)"/><path class="981f99f4-5a33-4a6d-854e-0ab1b95ae721" d="M185.9924,256.20071c.074-.314.148-.629.211-.954.021-.105.049-.202.069-.308.085-.466.158-.942.222-1.427.004-.032.006-.065.01-.095.077-.604.134-1.227.179-1.861.012-.168.023-.338.032-.51.038-.672.065-1.355.067-2.06q.003-1.545-.097-3.09l-.001-.015c-.059-.907-.155-1.813-.27-2.719-.031-.253-.068-.505-.104-.757-.042-.298-.075-.595-.123-.892-.073-.451-.164-.902-.251-1.352-.034-.179-.063-.356-.099-.535q-.276-1.35-.634-2.696c-.056-.213-.119-.427-.179-.641q-.3075-1.107-.671-2.213c-.071-.218-.138-.435-.213-.651-.041-.122-.076-.244-.119-.366-.274-.782-.573-1.565-.888-2.346-.067-.164-.141-.328-.209-.492-.21-.506-.416-1.011-.643-1.517-.127-.282-.266-.565-.398-.848-.084-.18-.167-.36-.254-.54-.369-.77-.752-1.54-1.161-2.309q-.13651-.255-.274-.51-.741-1.359-1.553-2.686c-.031-.051-.068-.101-.1-.153-.368-.598-.766-1.182-1.156-1.769-.244-.367-.47-.742-.723-1.105-.023-.033-.05-.065-.073-.099q-1.04851-1.5-2.193-2.956l-.007-.009c-.657-.833-1.346-1.653-2.052-2.463-.133-.154-.265-.307-.4-.459-.11-.125-.215-.252-.326-.375-.62-.691-1.26-1.37-1.915-2.044-.116-.118-.237-.234-.353-.351-.478-.485-.957-.97-1.455-1.445-.147-.142-.309-.278-.458-.418-.493-.464-1.001-.92-1.512-1.376-.447-.401-.893-.802-1.355-1.195-.529-.452-1.075-.893-1.621-1.335-.346-.28-.672-.568-1.024-.844q-.408-.3195-.822-.636l-13.744,7.986c.634.486,1.235.985,1.847,1.48.545.442,1.092.884,1.62,1.334.463.395.909.798,1.358,1.199.509.455,1.017.909,1.508,1.372.652.614,1.292,1.235,1.912,1.863.117.119.24.234.356.353q1.15949,1.1925,2.242,2.419c.134.151.265.305.398.457.708.814,1.4,1.637,2.06,2.474.765.969,1.493,1.956,2.193,2.956.277.397.53.805.797,1.207.39.586.787,1.17,1.154,1.765.577.936,1.131,1.88,1.653,2.84.511.94.985,1.879,1.437,2.821.085.178.168.357.251.536q.555,1.185,1.044,2.369c.067.163.141.325.206.488q.54749,1.356,1.01,2.715c.073.216.14.432.211.647q.363,1.107.672,2.215c.059.214.123.428.179.643q.357,1.3455.634,2.695c.036.178.065.356.099.533q.21451,1.122.374,2.245c.036.253.072.505.104.757.114.911.211,1.823.271,2.735q.1005,1.545.096,3.09c-.002.705-.028,1.387-.066,2.059-.01.172-.021.343-.033.512-.044.634-.101,1.257-.178,1.859-.004.031-.006.064-.01.095-.078.596-.181,1.169-.291,1.735-.063.325-.137.64-.211.954-.078.334-.156.668-.246.992-.085.304-.18.599-.275.894-.106.328-.212.657-.331.974-.073.194-.151.384-.229.575q-.21751.5295-.461,1.038c-.086.178-.17.357-.26.531q-.3165.609-.67,1.185c-.046.073-.087.152-.134.225a17.2184,17.2184,0,0,1-.996,1.408,13.47,13.47,0,0,1-1.135,1.244c-.122.119-.243.239-.369.352-.12.11-.243.216-.367.32-.172.144-.348.282-.528.417-.129.096-.257.193-.389.285-.28.193-.562.382-.858.553l13.743-7.986c.231-.135.457-.275.678-.423.063-.041.119-.09.181-.132.132-.091.26-.187.387-.283q.27-.201.53-.418c.124-.104.246-.211.367-.319.074-.067.154-.129.227-.198.05-.048.091-.107.141-.155a12.97023,12.97023,0,0,0,1.135-1.245c.063-.079.125-.159.186-.239.285-.375.554-.766.811-1.167.046-.073.087-.152.133-.227.183-.296.367-.594.535-.906.048-.09.088-.186.135-.277.09-.174.175-.354.26-.531.162-.339.317-.685.462-1.039.078-.19.155-.38.228-.575.044-.117.095-.226.137-.344.072-.203.127-.422.194-.629.095-.296.191-.591.275-.896.09-.322.168-.656.246-.99" transform="translate(0.00054 0.00089)"/><polygon class="691e94e8-1922-4a58-bbe8-bee29f5b5469" points="168.866 195.086 182.609 187.099 161.096 202.779 147.353 210.766 168.866 195.086"/><path class="7bc9beb1-b94b-4f2e-a5ba-8bf735a0c1d8" d="M168.9118,178.71732l-.046,16.368-21.513,15.68a68.91717,68.91717,0,0,1,19.098,21.719,50.52956,50.52956,0,0,1,6.588,24.489q-.027,9.519-4.392,15.035-4.3605,5.517-13.258,5.219-8.9025-.3-21.786-7.736a119.76514,119.76514,0,0,1-19.733-14.434,108.88449,108.88449,0,0,1-16.454-18.164l8.598-14.4a91.05866,91.05866,0,0,0,12.531,14.496,79.17191,79.17191,0,0,0,14.575,10.995q8.265,4.77,13.029,3.847,4.761-.91049,4.78-7.624.03749-13.3905-17.731-23.662l-10.043-5.798.048-16.676,19.608-14.126-40.427-23.341.057-20.264Z" transform="translate(0.00054 0.00089)"/><polygon class="981f99f4-5a33-4a6d-854e-0ab1b95ae721" points="168.912 178.718 182.655 170.732 182.609 187.099 168.866 195.086 168.912 178.718"/><polygon class="a0faee4e-3ee7-42ba-8bed-23ab000fed4f" points="116.185 132.355 102.442 140.341 168.913 178.718 182.656 170.732 116.185 132.355"/><polygon class="bc6b23e5-8b23-43ff-9b1d-3562566d4c86" points="103.804 315.693 103.782 323.433 92.703 317.037 92.641 338.91 84.101 333.979 84.185 304.366 103.804 315.693"/><path class="bc6b23e5-8b23-43ff-9b1d-3562566d4c86" d="M132.056,338.848a23.82542,23.82542,0,0,1,1.853,9.06,11.09366,11.09366,0,0,1-1.899,6.885,6.41871,6.41871,0,0,1-5.207,2.527,14.637,14.637,0,0,1-7.478-2.325,28.38867,28.38867,0,0,1-7.466-6.303,31.25789,31.25789,0,0,1-5.176-8.522,23.83252,23.83252,0,0,1-1.854-9.051,11.11454,11.11454,0,0,1,1.899-6.894,6.42064,6.42064,0,0,1,5.207-2.526,14.61463,14.61463,0,0,1,7.478,2.326,28.3535,28.3535,0,0,1,7.467,6.302,31.27756,31.27756,0,0,1,5.176,8.521m-7.692,7.464a6.45439,6.45439,0,0,0,.787-3.461,12.53436,12.53436,0,0,0-.765-4.363,13.66738,13.66738,0,0,0-2.074-3.785,10.24575,10.24575,0,0,0-2.922-2.595,4.85184,4.85184,0,0,0-2.933-.785,2.80554,2.80554,0,0,0-2.082,1.385,6.45589,6.45589,0,0,0-.787,3.467,12.55967,12.55967,0,0,0,.764,4.357,13.68382,13.68382,0,0,0,2.069,3.78,10.32653,10.32653,0,0,0,2.927,2.599,4.82927,4.82927,0,0,0,2.927.782,2.80033,2.80033,0,0,0,2.089-1.381" transform="translate(0.00054 0.00089)"/><path class="bc6b23e5-8b23-43ff-9b1d-3562566d4c86" d="M163.26189,371.92852l3.388,1.956-.039,13.531-7.95-4.59.017-5.79-14.653-8.46-.016,5.79-7.95-4.59.038-13.53.736.425q2.24851,1.296,3.179-1.432a35.61643,35.61643,0,0,0,1.201-8.922l.323-8.84,21.788,12.579Zm-8.54-4.931.04-14.132-5.921-3.419-.086,2.072a56.38125,56.38125,0,0,1-.604,6.916,9.40067,9.40067,0,0,1-1.379,3.973l7.95,4.59" transform="translate(0.00054 0.00089)"/><path class="bc6b23e5-8b23-43ff-9b1d-3562566d4c86" d="M189.095,364.93382l11.181,36.118-8.984-5.187-1.716-6.164-9.793-5.654-1.745,4.166-8.831-5.099,11.348-23.109Zm-6.898,13.303,5.006,2.89-2.479-8.887-2.527,5.997" transform="translate(0.00054 0.00089)"/><path class="3d484c57-0524-4971-8ea1-b0107e7c9e82" d="M232.64529,252.77951c-.006-.31-.019-.622-.028-.933-.017-.626-.034-1.251-.06-1.88-.016-.373-.038-.748-.058-1.121-.028-.569-.057-1.136-.093-1.706-.026-.403-.057-.807-.086-1.211-.04-.544-.08-1.09-.126-1.636-.036-.418-.076-.837-.115-1.255-.051-.535-.102-1.071-.159-1.607q-.06752-.6375-.142-1.278-.09148-.801-.192-1.604-.081-.6435-.169-1.287-.1065-.801-.225-1.606-.09448-.645-.193-1.294-.126-.8055-.26-1.614c-.071-.43-.142-.859-.218-1.29q-.1425-.819-.296-1.64c-.078-.422-.155-.845-.237-1.268-.109-.561-.223-1.121-.337-1.683-.084-.411-.166-.822-.254-1.234-.124-.586-.255-1.173-.386-1.759-.086-.387-.17-.773-.259-1.161-.149-.646-.306-1.291-.462-1.937-.081-.329-.156-.658-.238-.987q-.3465-1.3875-.716-2.776c-.013-.05-.025-.1-.039-.15q-.39-1.464-.809-2.929c-.089-.312-.184-.623-.274-.935-.194-.665-.387-1.33-.589-1.995-.115-.38-.236-.761-.354-1.141-.185-.596-.369-1.192-.56-1.788-.032-.099-.061-.198-.093-.298-.071-.218-.148-.437-.219-.656q-.396-1.212-.809-2.424-.1845-.543-.374-1.087-.42751-1.23-.874-2.459c-.104-.289-.206-.577-.312-.865q-.603-1.638-1.234-3.269c-.085-.219-.173-.437-.258-.656q-.516-1.317-1.05-2.631c-.061-.149-.118-.299-.18-.45-.05-.121-.105-.24-.155-.361q-1.03649-2.514-2.142-5.012c-.098-.223-.198-.446-.298-.669q-1.113-2.49-2.293-4.961c-.053-.111-.102-.224-.155-.336-.059-.122-.123-.243-.182-.366q-1.059-2.196-2.169-4.374c-.117-.229-.236-.457-.353-.686q-1.1385-2.211-2.325-4.4c-.032-.059-.062-.12-.094-.179-.07-.128-.144-.253-.214-.381q-1.107-2.022-2.254-4.023c-.049-.086-.097-.172-.146-.258q-1.17748-2.04-2.4-4.052c-.084-.139-.164-.281-.248-.419-.059-.098-.122-.194-.182-.292q-1.1445-1.87646-2.327-3.728c-.151-.237-.304-.472-.456-.709q-1.224-1.902-2.481-3.779c-.007-.01-.013-.02-.02-.029l-.005-.007q-1.245-1.851-2.53-3.666-.255-.363-.511-.727-1.248-1.758-2.528-3.486c-.056-.077-.111-.155-.168-.233-.099-.133-.202-.262-.302-.396q-1.2675-1.698-2.562-3.366c-.07-.09-.139-.181-.208-.27q-1.356-1.73547-2.745-3.432c-.103-.126-.202-.256-.306-.382-.082-.101-.167-.197-.25-.298q-1.41151-1.716-2.854-3.393c-.165-.192-.332-.381-.498-.573q-1.51051-1.743-3.051-3.443l-.005-.006-.001-.002q-1.6965-1.863-3.432-3.666c-.123-.129-.245-.259-.369-.388q-1.65-1.71-3.334-3.363c-.104-.102-.205-.209-.309-.312-.066-.064-.134-.124-.2-.188q-1.9305-1.884-3.899-3.689c-.145-.133-.288-.267-.433-.399q-2.004-1.827-4.046-3.568c-.08-.068-.158-.142-.238-.209-.061-.052-.122-.101-.183-.153q-1.299-1.101-2.613-2.168c-.18-.146-.362-.288-.544-.433q-1.062-.855-2.132-1.685-.417-.32249-.835-.641-1.02452-.783-2.056-1.542c-.226-.166-.449-.334-.675-.498q-1.344-.97948-2.699-1.918c-.044-.031-.087-.063-.131-.093-.074-.051-.149-.097-.223-.148q-2.058-1.41449-4.139-2.74c-.063-.041-.127-.079-.191-.119q-2.154-1.36047-4.333-2.624-1.16249-.67049-2.318-1.305c-.271-.147-.539-.286-.809-.431-.5-.269-1-.54-1.498-.798-.31-.161-.619-.312-.928-.469-.455-.23-.91-.465-1.363-.686-.328-.161-.653-.311-.98-.466-.432-.206-.865-.417-1.295-.615-.336-.154-.669-.298-1.003-.448-.42-.187-.84-.379-1.258-.558-.342-.148-.681-.285-1.022-.427-.406-.17-.813-.343-1.217-.505-.349-.141-.695-.27-1.041-.404-.396-.154-.792-.31-1.185-.456-.345-.128-.688-.246-1.031-.369-.393-.141-.786-.285-1.177-.418-.344-.118-.686-.226-1.029-.338-.386-.126-.773-.256-1.158-.375-.342-.108-.682-.205-1.024-.306-.381-.113-.764-.23-1.144-.337-.342-.096-.682-.184-1.022-.274-.375-.1-.75-.202-1.123-.295-.341-.086-.679-.162-1.019-.242-.37-.087-.74-.177-1.108-.258-.338-.074-.673-.14-1.009-.208-.365-.074-.731-.152-1.095-.22-.335-.063-.669-.118-1.003-.176-.36-.061-.72-.126-1.078-.181-.332-.052-.661-.096-.991-.143-.357-.05-.714-.102-1.068-.145-.328-.041-.652-.074-.978-.109-.272-.029-.547-.065-.817-.091-.065-.006-.128-.008-.192-.013q-1.23-.114-2.44-.176c-.153-.008-.304-.01-.456-.017q-.996-.042-1.977-.052-.366-.00146-.73-.001-.933.00449-1.854.041c-.181.006-.363.009-.544.018q-1.164.057-2.308.163c-.045.004-.091.005-.135.009-.212.02-.42.051-.63.073-.392.042-.783.085-1.171.136-.276.036-.548.079-.822.12-.369.055-.738.11-1.103.173-.279.049-.556.101-.832.154-.355.069-.71.138-1.061.213q-.4185.09-.831.188-.519.12-1.032.252c-.133.034-.269.062-.401.097-.163.044-.322.094-.484.139-.255.071-.508.143-.76.219-.311.091-.619.188-.927.288-.249.079-.497.159-.744.243-.308.105-.614.216-.92.327-.239.088-.479.174-.717.266-.309.119-.615.245-.921.37-.228.095-.457.185-.684.283-.061.026-.124.05-.185.077-.112.049-.22.107-.331.156q-.80251.35852-1.587.747c-.187.093-.374.185-.559.281-.656.337-1.306.685-1.943,1.055l-7.048,4.096c.041-.024.085-.045.127-.069-16.255,9.373-26.355,29.371-26.436,57.799-.161,57.078,40.122,126.843,89.794,155.522,25.308,14.611,48.243,15.774,64.678,5.859-.201.122-.399.248-.602.367l7.048-4.096c16.179-9.402,26.225-29.371,26.305-57.724q.00449-1.39048-.025-2.792m-34.917,53.721c-.051.023-.101.049-.152.071-.138.062-.274.126-.412.187-.831.359-1.679.688-2.538.994-.13.046-.26.094-.391.139q-1.2735.438-2.59.796c-.195.052-.391.106-.587.157-.316.081-.633.157-.952.232-.253.059-.507.117-.764.172-.324.069-.651.134-.978.196-.255.048-.51.098-.767.142-.335.058-.674.108-1.012.159-.254.038-.507.078-.764.111-.354.047-.712.085-1.069.124-.238.026-.474.055-.712.078q-1.0545.096-2.126.149c-.166.008-.334.011-.5.017q-.8505.033-1.71.037c-.224.001-.447.001-.671-.001q-.903-.00751-1.82-.047c-.141-.006-.281-.009-.423-.016q-1.116-.057-2.249-.162c-.306-.027-.614-.062-.922-.096-.303-.032-.605-.062-.909-.1-.325-.04-.652-.088-.979-.134-.305-.043-.609-.083-.916-.131-.33-.052-.662-.11-.994-.168-.308-.052-.615-.103-.924-.162-.334-.062-.67-.133-1.005-.201-.311-.064-.621-.124-.934-.193-.337-.074-.678-.157-1.018-.237-.314-.073-.626-.144-.941-.223-.342-.085-.687-.18-1.031-.272-.315-.084-.629-.164-.946-.253-.347-.097-.696-.204-1.045-.307-.317-.095-.634-.186-.954-.285-.348-.109-.7-.226-1.05-.341-.322-.105-.642-.206-.965-.317-.353-.121-.709-.251-1.064-.378-.323-.115-.645-.226-.968-.346-.362-.135-.726-.279-1.089-.419-.32-.124-.638-.243-.959-.372-.376-.152-.755-.313-1.132-.47-.311-.13-.621-.255-.933-.389-.385-.166-.772-.343-1.158-.515-.309-.138-.616-.271-.925-.413-.394-.181-.79-.374-1.185-.562-.304-.145-.606-.284-.911-.434-.426-.208-.853-.427-1.281-.644-.276-.141-.551-.275-.828-.418-.476-.247-.954-.507-1.432-.765-.232-.124-.462-.242-.693-.369q-1.0665-.585-2.138-1.203-2.109-1.218-4.192-2.543c-.463-.294-.919-.612-1.381-.914-.931-.609-1.864-1.214-2.787-1.854-.159-.11-.315-.225-.474-.336q-1.647-1.1535-3.275-2.372c-.299-.223-.598-.445-.895-.671q-1.8075-1.37251-3.589-2.812c-.151-.123-.299-.25-.449-.373-.956-.783-1.903-1.589-2.846-2.401-.717-.619-1.427-1.249-2.137-1.885-.63-.564-1.26-1.128-1.884-1.705-.704-.652-1.401-1.318-2.097-1.985-.635-.608-1.271-1.215-1.899-1.838-.523-.518-1.042-1.046-1.561-1.574q-1.0425-1.0605-2.073-2.139-.7755-.819-1.543-1.651-1.047-1.131-2.08-2.285c-.44-.493-.879-.986-1.315-1.484q-1.089-1.24651-2.157-2.523c-.397-.469-.796-.936-1.188-1.411q-1.38-1.67249-2.727-3.385c-.155-.196-.314-.387-.468-.585q-1.575-2.016-3.102-4.088c-.294-.397-.58-.801-.871-1.201q-1.083-1.488-2.143-2.997-.528-.75451-1.048-1.518-.9585-1.3965-1.895-2.812-.52951-.801-1.053-1.605-.96451-1.48949-1.901-2.999c-.295-.474-.595-.944-.887-1.419q-1.152-1.884-2.26-3.794c-.145-.249-.296-.493-.44-.742q-1.3125-2.277-2.563-4.586c-.312-.575-.61-1.156-.915-1.732-.539-1.016-1.079-2.033-1.6-3.056-.331-.653-.649-1.309-.973-1.963-.467-.944-.934-1.887-1.385-2.835-.43-.904-.843-1.812-1.258-2.72-.368-.806-.741-1.609-1.098-2.419-.404-.916-.789-1.837-1.178-2.757-.364-.859-.734-1.718-1.084-2.58-.132-.324-.26-.65-.389-.974q-.807-2.022-1.565-4.051c-.084-.224-.171-.448-.253-.671-.556-1.507-1.085-3.018-1.598-4.529-.119-.352-.234-.704-.351-1.055-.493-1.485-.972-2.972-1.422-4.459-.043-.142-.082-.282-.125-.424-.486-1.625-.952-3.25-1.386-4.874a.19686.19686,0,0,0-.008-.026q-.651-2.4375-1.216-4.872c-.034-.147-.071-.293-.105-.44q-.537-2.322-.993-4.635c-.043-.215-.087-.43-.129-.645q-.438-2.25751-.801-4.504c-.039-.243-.079-.486-.117-.73q-.3495-2.22748-.624-4.441c-.03-.241-.058-.482-.086-.723q-.264-2.2305-.452-4.443c-.017-.208-.031-.416-.047-.624-.119-1.511-.215-3.016-.277-4.512-.006-.137-.008-.274-.013-.412-.06-1.568-.093-3.13-.089-4.679.069-24.069,7.934-41.573,20.827-50.955,14.735-6.643,34.152-4.661,55.383,7.597,45.759,26.419,82.873,90.696,82.724,143.283-.068,24.049-7.923,41.544-20.801,50.929" transform="translate(0.00054 0.00089)"/><path class="edc152a9-97d0-43cd-978e-0c9d9d641949" d="M135.82788,104.13812c49.673,28.678,89.957,98.451,89.794,155.529-.161,57.077-40.708,80.177-90.38,51.498-49.673-28.678-89.956-98.444-89.794-155.522.162-57.077,40.708-80.184,90.38-51.505m-.563,198.877c45.758,26.418,83.115,5.138,83.265-47.443.149-52.587-36.966-116.865-82.724-143.284-45.759-26.419-83.109-5.133-83.259,47.455-.149,52.58,36.959,116.853,82.718,143.272" transform="translate(0.00054 0.00089)"/></g></svg>