<svg width="37" height="37" viewBox="0 0 37 37" fill="none" xmlns="http://www.w3.org/2000/svg">
<g clip-path="url(#clip0)">
<path d="M18.6206 8.1084C16.013 8.1084 13.8906 10.2308 13.8906 12.8384C13.8906 15.446 16.013 17.5684 18.6206 17.5684C21.2282 17.5684 23.3506 15.446 23.3506 12.8384C23.3506 10.2308 21.2282 8.1084 18.6206 8.1084ZM18.6206 16.217C16.7577 16.217 15.2421 14.7013 15.2421 12.8384C15.2421 10.9754 16.7577 9.45982 18.6206 9.45982C20.4836 9.45982 21.9992 10.9754 21.9992 12.8384C21.9992 14.7013 20.4836 16.217 18.6206 16.217Z" fill="white" stroke="white"/>
<path d="M27.6636 3.79548C25.2162 1.34805 21.962 0 18.501 0C15.0393 0 11.7858 1.34805 9.33832 3.79548C4.80902 8.32411 4.24615 16.8448 8.11934 22.0073L18.501 37L28.8671 22.0282C32.7558 16.8448 32.1929 8.32411 27.6636 3.79548ZM27.7711 21.2383L18.501 34.6255L9.21602 21.2174C5.70299 16.5333 6.20639 8.83832 10.2945 4.75094C12.4865 2.55892 15.4008 1.35143 18.501 1.35143C21.6012 1.35143 24.5155 2.55892 26.7082 4.75094C30.7963 8.83832 31.2997 16.5333 27.7711 21.2383Z" fill="white" stroke="white"/>
</g>
<defs>
<clipPath id="clip0">
<rect width="37" height="37" fill="white"/>
</clipPath>
</defs>
</svg>
